# Blender 4.4.0
# www.blender.org
mtllib Bati-rin_Texturizadoobj.mtl
o rin2
v 0.748700 -0.253664 -0.055111
v 0.748700 -0.237977 -0.102910
v 0.748700 -0.213247 -0.146744
v 0.748700 -0.180509 -0.184889
v 0.748700 -0.141014 -0.215955
v 0.748700 -0.096064 -0.238639
v 0.748700 -0.047647 -0.252150
v 0.748700 0.002451 -0.255944
v 0.748700 0.052396 -0.249921
v 0.748700 0.100141 -0.234318
v 0.748700 0.143976 -0.209588
v 0.748700 0.182120 -0.176850
v 0.748700 0.213102 -0.137301
v 0.748700 0.235870 -0.092406
v 0.748700 0.249382 -0.043988
v 0.748700 0.253176 0.006109
v 0.748700 0.247153 0.056055
v 0.748700 0.231466 0.103854
v 0.748700 0.206820 0.147635
v 0.748700 0.173998 0.185833
v 0.748700 0.134449 0.216815
v 0.748700 0.089637 0.239529
v 0.748700 0.041220 0.253040
v 0.748700 -0.058907 0.250865
v 0.748700 -0.106706 0.235178
v 0.748700 -0.150487 0.210532
v 0.748700 -0.188632 0.177794
v 0.748700 -0.219667 0.138161
v 0.748700 -0.242382 0.093350
v 0.748700 -0.255893 0.044932
vn 1.0000 -0.0000 -0.0000
vt 0.591754 0.085068
vt 0.664610 0.109844
vt 0.731763 0.150060
vt 0.790569 0.204029
vt 0.838884 0.269688
vt 0.874692 0.344879
vt 0.896732 0.426272
vt 0.904122 0.510865
vt 0.896648 0.595560
vt 0.874605 0.676887
vt 0.838619 0.751935
vt 0.790327 0.817653
vt 0.731491 0.871507
vt 0.664294 0.911666
vt 0.591462 0.936297
vt 0.515768 0.944555
vt 0.439981 0.936203
vt 0.367126 0.911427
vt 0.300056 0.871352
vt 0.241167 0.817242
vt 0.192978 0.751490
vt 0.157128 0.676533
vt 0.135087 0.595140
vt 0.135087 0.425711
vt 0.157257 0.344290
vt 0.193117 0.269336
vt 0.241409 0.203618
vt 0.300370 0.149670
vt 0.367442 0.109606
vt 0.440273 0.084974
s 1
usemtl carro_rueda1_wire_177028149
f 1/1/1 2/2/1 3/3/1
f 3/3/1 4/4/1 5/5/1
f 5/5/1 6/6/1 7/7/1
f 3/3/1 5/5/1 7/7/1
f 7/7/1 8/8/1 9/9/1
f 9/9/1 10/10/1 11/11/1
f 7/7/1 9/9/1 11/11/1
f 3/3/1 7/7/1 11/11/1
f 11/11/1 12/12/1 13/13/1
f 13/13/1 14/14/1 15/15/1
f 11/11/1 13/13/1 15/15/1
f 15/15/1 16/16/1 17/17/1
f 17/17/1 18/18/1 19/19/1
f 15/15/1 17/17/1 19/19/1
f 11/11/1 15/15/1 19/19/1
f 3/3/1 11/11/1 19/19/1
f 19/19/1 20/20/1 21/21/1
f 21/21/1 22/22/1 23/23/1
f 19/19/1 21/21/1 23/23/1
f 24/24/1 25/25/1 26/26/1
f 23/23/1 24/24/1 26/26/1
f 19/19/1 23/23/1 26/26/1
f 3/3/1 19/19/1 26/26/1
f 26/26/1 27/27/1 28/28/1
f 28/28/1 29/29/1 30/30/1
f 26/26/1 28/28/1 30/30/1
f 3/3/1 26/26/1 30/30/1
f 1/1/1 3/3/1 30/30/1
