# 3ds Max Wavefront OBJ Exporter v0.99 - (c)2007 guruware
# File Created: 26.03.2025 20:18:17

mtllib bati_rin.mtl

#
# object rin2
#

v  0.7487 -0.1844 -0.1827
v  0.7487 -0.1455 -0.2146
v  0.7487 -0.1011 -0.2383
v  0.7487 -0.0530 -0.2529
v  0.7487 -0.0030 -0.2579
v  0.7487 0.0471 -0.2529
v  0.7487 0.0952 -0.2383
v  0.7487 0.1395 -0.2146
v  0.7487 0.1784 -0.1827
v  0.7487 0.2103 -0.1439
v  0.7487 0.2340 -0.0995
v  0.7487 0.2486 -0.0514
v  0.7487 0.2535 -0.0014
v  0.7487 0.2486 0.0487
v  0.7487 0.2340 0.0968
v  0.7487 0.2103 0.1411
v  0.7487 0.1784 0.1800
v  0.7487 0.1395 0.2119
v  0.7487 0.0952 0.2356
v  0.7487 0.0470 0.2502
v  0.7487 -0.0030 0.2551
v  0.7487 -0.0530 0.2502
v  0.7487 -0.1011 0.2356
v  0.7487 -0.1844 0.1800
v  0.7487 -0.2163 0.1411
v  0.7487 -0.2400 0.0968
v  0.7487 -0.2546 0.0487
v  0.7487 -0.2595 -0.0014
v  0.7487 -0.2546 -0.0514
v  0.7487 -0.2400 -0.0995
# 30 vertices

vn 1.0000 0.0000 -0.0000
vn 1.0000 -0.0000 0.0000
# 2 vertex normals

vt 0.0000 0.0000 0.0000
# 1 texture coords

o rin2
g rin2
usemtl carro_rueda1_wire_177028149
s off
f 1/1/1 2/1/1 3/1/1 
f 3/1/1 4/1/1 5/1/1 
f 5/1/1 6/1/1 7/1/1 
f 3/1/1 5/1/1 7/1/1 
f 7/1/1 8/1/1 9/1/1 
f 9/1/1 10/1/1 11/1/1 
f 7/1/1 9/1/1 11/1/1 
f 3/1/1 7/1/1 11/1/1 
f 11/1/1 12/1/1 13/1/1 
f 13/1/1 14/1/1 15/1/1 
f 11/1/1 13/1/1 15/1/1 
f 15/1/1 16/1/1 17/1/1 
f 17/1/1 18/1/1 19/1/1 
f 15/1/1 17/1/1 19/1/1 
f 11/1/1 15/1/1 19/1/1 
f 3/1/1 11/1/1 19/1/1 
f 19/1/1 20/1/2 21/1/1 
f 21/1/1 22/1/1 23/1/1 
f 19/1/1 21/1/1 23/1/1 
f 24/1/1 25/1/1 26/1/1 
f 23/1/1 24/1/1 26/1/1 
f 19/1/1 23/1/1 26/1/1 
f 3/1/1 19/1/1 26/1/1 
f 26/1/1 27/1/1 28/1/1 
f 28/1/1 29/1/1 30/1/1 
f 26/1/1 28/1/1 30/1/1 
f 3/1/1 26/1/1 30/1/1 
f 1/1/1 3/1/1 30/1/1 
# 0 polygons - 28 triangles

