# Blender 4.4.0
# www.blender.org
mtllib Bati-Cofre.mtl
o Object
v 0.958200 -0.065900 1.331900
v 0.957100 -0.015900 0.044400
v 0.472700 0.034100 0.094400
v -0.496500 -0.015900 1.381900
v -0.011700 -0.015900 1.396900
v -0.011700 0.049100 0.094400
v 0.473300 -0.015900 1.381900
v -0.981400 -0.065900 1.331900
v -0.496000 0.034100 0.094400
v -0.980400 -0.015900 0.044400
vn 0.3896 0.6057 0.6938
vn 0.5579 0.8188 0.1351
vn 0.0902 0.9630 0.2539
vn -0.2288 0.8641 0.4483
vn -0.0000 0.9990 0.0443
vn -0.0000 0.9416 0.3367
vn 0.2288 0.8641 0.4483
vn -0.3890 0.6058 0.6940
vn -0.0902 0.9630 0.2539
vn -0.5576 0.8190 0.1351
vt 0.785643 0.466950
vt 0.746933 0.694604
vt 0.648594 0.674115
vt 0.335559 0.363642
vt 0.499666 0.296487
vt 0.500024 0.663849
vt 0.660783 0.362752
vt 0.206190 0.493539
vt 0.349936 0.675005
vt 0.257938 0.696388
s 1
usemtl wire_177028149
f 1/1/1 2/2/2 3/3/3
f 4/4/4 5/5/5 6/6/6
f 7/7/7 3/3/3 6/6/6
f 8/8/8 4/4/4 9/9/9
f 3/3/3 7/7/7 1/1/1
f 6/6/6 9/9/9 4/4/4
f 6/6/6 5/5/5 7/7/7
f 9/9/9 10/10/10 8/8/8
