# Blender 4.4.0
# www.blender.org
mtllib Bati-Carro.mtl
o Object002
v 0.449200 0.367400 -2.470300
v -0.035000 0.293700 -2.468000
v -0.035000 0.382400 -2.470300
v -1.003800 0.317400 -0.720300
v -0.989300 0.343100 -0.680300
v -0.727700 0.815600 -0.792800
v -0.519400 0.367400 -1.957800
v -1.003800 0.317400 -1.882800
v -0.955400 0.331600 -1.874100
v 0.643100 0.817400 -1.534000
v 0.933700 0.317400 -1.882800
v 0.885300 0.331600 -1.874100
v 0.643100 0.842400 -0.845300
v 0.933700 0.317400 -0.720300
v 0.919200 0.343100 -0.772800
v -1.035000 0.242400 1.679700
v -1.035000 -0.020100 1.779700
v -1.004800 0.267400 1.750900
v -1.003800 0.317400 0.463400
v -1.035000 0.292400 -0.720300
v 0.643100 0.817400 -0.156500
v 0.933700 0.317400 0.463400
v 0.919200 0.343100 0.366000
v -0.713200 0.842400 -0.845300
v -0.727700 0.815600 -0.885300
v -0.989300 0.343100 -0.772800
v -0.035000 0.382400 -1.982800
v -0.495200 0.379100 -1.949100
v 0.965000 0.292400 -1.304700
v 0.965000 0.292400 -0.720300
v 0.965000 -0.020100 -0.720300
v 0.965000 0.242400 1.679700
v 0.965000 -0.020100 1.779700
v 0.965000 0.079900 1.146500
v -1.035000 0.264300 0.629700
v -1.035000 -0.020100 -0.720300
v -1.035000 0.292400 -2.457000
v -1.035000 -0.020100 -2.520300
v -1.035000 0.079900 -1.870000
v -0.995800 -0.002700 1.757300
v 0.934900 0.267400 1.750900
v -0.535000 -0.020100 1.879700
v -0.570800 -0.002700 1.842300
v -0.935000 -0.020100 -2.520300
v -1.035000 -0.072100 -2.520300
v 0.965000 -0.072100 -0.720300
v 0.965000 0.079900 -1.367500
v 0.965000 0.079900 0.736300
v -0.519900 0.317400 1.800900
v -0.558000 0.249200 1.757300
v 0.449900 0.317400 1.800900
v 0.488000 0.249200 1.757300
v 0.925800 -0.002700 1.757300
v 0.500800 -0.002700 1.842300
v -0.970100 0.241700 1.714800
v 0.900200 0.241700 1.714800
v 0.465000 -0.020100 1.879700
v 0.965000 0.292400 -1.932800
v 0.965000 0.292400 -2.457000
v 0.933400 0.317400 -2.470300
v -1.002700 0.317400 -2.470300
v -0.713200 0.817400 -0.156500
v -0.727700 0.793100 -0.172900
v -0.989300 0.343100 0.366000
v -0.713200 0.817400 -1.534000
v -0.989300 0.343100 -1.819100
v -0.989300 0.343100 -1.557500
v 0.657600 0.793100 -0.172900
v 0.657600 0.815600 -0.792800
v 0.919200 0.343100 -0.680300
v 0.657600 0.793100 -1.505200
v 0.919200 0.343100 -1.819100
v 0.657600 0.815600 -0.885300
v 0.965000 -0.072100 -2.520300
v 0.865000 -0.020100 -2.520300
v 0.965000 -0.020100 -2.520300
v -1.035000 -0.072100 -0.720300
v -1.035000 0.079900 0.736300
v -1.035000 0.254900 1.079700
v -1.035000 0.079900 1.146500
v 0.965000 0.254900 1.079700
v 0.965000 0.264300 0.629700
v -1.035000 0.292400 -1.932800
v -1.035000 0.079900 -1.367500
v 0.965000 0.079900 -1.870000
v -1.035000 0.292400 -1.304700
v 0.449300 0.367400 -1.957800
v 0.425100 0.379100 -1.949100
v -0.679300 0.806600 -1.542800
v -0.035000 0.393300 -1.974100
v -0.035000 -0.020100 -2.520300
v -1.035000 -0.230500 -2.520300
v -1.035000 -0.230500 -2.032800
v 0.304000 0.867400 -1.609000
v -0.035000 0.882400 -1.634000
v -0.035000 0.907400 -0.845300
v -0.035000 0.882400 -0.106500
v -0.374100 0.867400 -0.106500
v -0.357200 0.853900 -0.091600
v -0.679300 0.806400 -0.141600
v -0.518900 0.367400 -2.470300
v -0.374100 0.892400 -0.845300
v 0.304000 0.892400 -0.845300
v -0.035000 0.868900 -0.091600
v 0.287100 0.853900 -0.091600
v 0.609200 0.806400 -0.141600
v 0.885300 0.331400 0.427200
v 0.287100 0.854100 -1.617800
v -0.955400 0.331400 0.427200
v -0.035000 0.382400 0.513400
v 0.449300 0.367400 0.513400
v 0.425100 0.378900 0.477200
v -0.035000 0.393900 0.477200
v -0.495200 0.378900 0.477200
v -0.519400 0.367400 0.513400
v 0.304000 0.867400 -0.106500
v -0.374100 0.867400 -1.609000
v 0.609200 0.806600 -1.542800
v -0.357200 0.854100 -1.617800
v -0.035000 0.868300 -1.642800
v -0.035000 -0.020100 1.894700
v 0.449900 0.317400 1.779700
v -0.519900 0.317400 1.779700
v -0.989300 0.343100 -1.361300
v -0.988000 0.345400 0.359100
v -0.988000 0.345400 -0.676700
v 0.914600 0.351100 -0.667700
v 0.914600 0.351100 0.342100
v -0.988000 0.345400 -0.777600
v 0.914600 0.351100 -1.799200
v 0.914600 0.351100 -0.789300
v -0.647100 0.796300 -1.551000
v -0.909300 0.345000 -1.865800
v 0.839200 0.345000 -1.865800
v 0.402100 0.390200 -1.940800
v -0.035000 0.403700 -1.965800
v -0.472200 0.390200 -1.940800
v -0.341100 0.841300 -0.078400
v 0.402100 0.390000 0.462000
v 0.839200 0.344900 0.414500
v -0.472200 0.390000 0.462000
v -0.909300 0.344900 0.414500
v -0.035000 0.855000 -1.651000
v -0.341100 0.841400 -1.626000
v 0.271000 0.841400 -1.626000
v 0.577000 0.796300 -1.551000
v -0.647100 0.796100 -0.125900
v 0.271000 0.841300 -0.078400
v 0.577000 0.796100 -0.125900
v -0.035000 0.855500 -0.078400
v -0.035000 0.404300 0.462000
v -0.729000 0.813200 -0.788000
v -0.727700 0.793100 -1.505200
v -0.727700 0.798700 -1.350200
v -0.729000 0.813200 -0.888900
v -0.988000 0.345400 -1.813300
v -0.729000 0.790900 -0.174400
v 0.662200 0.807200 -0.776300
v 0.662200 0.785400 -1.496200
v 0.662200 0.785400 -0.178000
v -0.727700 0.802900 -1.234000
v 0.662200 0.807200 -0.897800
v -0.729000 0.800600 -1.234100
v -0.729000 0.790900 -1.502600
v -1.035000 -0.230500 0.531300
v -1.085000 -0.255500 0.531300
v -1.085000 0.054900 0.736300
v -1.085000 0.054900 1.146500
v 0.965000 -0.230500 -1.204700
v 1.015000 -0.255500 -1.204700
v 1.015000 0.054900 -1.367500
v 0.965000 -0.230500 -2.032800
v 1.015000 0.054900 -1.870000
v 0.965000 -0.230500 0.531300
v 1.015000 0.054900 0.736300
v 1.015000 0.054900 1.146500
v -1.085000 -0.232200 0.592800
v -1.085000 0.031700 0.767100
v -1.085000 0.031700 1.115700
v -1.010000 -0.382600 0.531300
v 1.015000 0.031700 0.767100
v 1.015000 -0.232200 0.592800
v 1.015000 0.031700 1.115700
v 1.015000 -0.255500 0.531300
v 0.940000 -0.382600 0.531300
v 1.015000 0.039400 -1.832300
v 1.015000 -0.239900 -1.970700
v 1.015000 -0.239900 -1.266800
v 1.015000 0.039400 -1.405200
v 1.015000 -0.255500 -2.032800
v 0.940000 -0.382600 -2.032800
v 0.940000 -0.382600 -1.204700
v -1.085000 -0.255500 -1.204700
v -1.085000 -0.232200 -1.266800
v -1.010000 -0.382600 -1.204700
v -1.010000 -0.382600 -2.520300
v -1.010000 -0.382600 -2.032800
v 0.965000 -0.280500 1.779700
v 0.940000 -0.382600 1.779700
v 0.940000 -0.382600 1.351600
v 0.965000 -0.230500 -0.720300
v 0.940000 -0.382600 -0.720300
v -1.035000 -0.230500 -0.720300
v -1.010000 -0.382600 -0.720300
v -0.035000 -0.035700 2.029700
v 0.415000 -0.035700 2.014700
v 0.910000 -0.325800 -2.620300
v 0.965000 -0.230500 -2.520300
v 0.940000 -0.382600 -2.520300
v -0.035000 -0.325800 -2.620300
v -0.035000 -0.382600 -2.520300
v -0.912500 -0.382600 -2.520300
v 0.865000 -0.035700 1.914700
v -0.035000 -0.382600 1.879700
v 0.452500 -0.382600 1.879700
v 0.415000 -0.316900 2.014700
v 0.842500 -0.382600 -2.520300
v -0.522500 -0.382600 1.879700
v -0.485100 -0.316900 2.014700
v -0.935100 -0.316900 1.914700
v -0.980000 -0.325800 -2.620300
v 0.865000 -0.270100 1.929700
v 0.415000 -0.270100 2.029700
v -0.035000 -0.270100 2.044700
v -0.035000 -0.316900 2.029700
v -0.935100 -0.270100 1.929700
v -0.485100 -0.270100 2.029700
v 0.865000 -0.316900 1.914700
v 0.965000 -0.072100 1.779700
v -0.935100 -0.035700 1.914700
v -1.035000 -0.280500 1.779700
v -1.010000 -0.382600 1.779700
v -0.485100 -0.035700 2.014700
v -1.035000 -0.072100 1.779700
v -0.935100 -0.082600 1.929700
v 0.865000 -0.082600 1.929700
v -0.485100 -0.082600 2.029700
v -0.035000 -0.082600 2.044700
v 0.415000 -0.082600 2.029700
v -0.980000 -0.051900 -2.620300
v 0.910000 -0.051900 -2.620300
v -0.035000 -0.051900 -2.620300
v -1.035000 -0.230500 1.351600
v -1.010000 -0.382600 1.351600
v -1.035000 -0.230500 -1.204700
v 0.965000 -0.230500 1.351600
v -1.085000 0.054900 -1.367500
v -1.085000 0.054900 -1.870000
v 1.015000 -0.255500 1.351600
v -1.085000 -0.255500 -2.032800
v -1.085000 -0.232200 1.290100
v -1.085000 -0.255500 1.351600
v 1.015000 -0.232200 1.290100
v -1.085000 -0.232200 -1.970700
v -1.085000 0.031700 -1.832300
v -1.085000 0.031700 -1.405200
v -0.815000 -0.382600 -2.032800
v -0.522500 -0.382600 -0.720300
v -0.035000 -0.382600 -0.720300
v -0.035000 -0.382600 0.629700
v 0.452500 -0.382600 -0.720300
v 0.452500 -0.382600 0.629700
v 0.745000 -0.382600 -2.032800
v -0.522500 -0.382600 1.229700
v -0.035000 -0.382600 1.229700
v 0.452500 -0.382600 1.229700
v -0.522500 -0.382600 0.629700
v -0.035000 -0.382600 -2.032800
v 0.671800 -0.382600 -1.204700
v -0.741900 -0.382600 -1.204700
v -0.035000 -0.382600 -1.204700
v -0.035000 0.317400 1.794700
vn 0.0009 -0.1174 -0.9931
vn 0.0003 -0.1174 -0.9931
vn -0.0003 -0.1174 -0.9931
vn -0.8700 0.4930 0.0024
vn -0.8721 0.4892 0.0081
vn -0.8743 0.4854 0.0062
vn -0.1696 0.8332 -0.5263
vn -0.1708 0.8346 -0.5238
vn 0.0233 0.5810 -0.8136
vn 0.0236 0.5811 -0.8135
vn 0.8756 0.4829 -0.0071
vn 0.8700 0.4931 0.0016
vn 0.8754 0.4834 -0.0075
vn -0.8784 0.1701 0.4466
vn -0.7707 0.6371 0.0129
vn 0.8647 0.5020 0.0164
vn 0.8610 0.5086 0.0069
vn -0.8756 0.4829 -0.0072
vn -0.8755 0.4832 -0.0063
vn -0.8704 0.4923 -0.0063
vn -0.0602 0.6503 -0.7573
vn -0.0609 0.6507 -0.7569
vn 1.0000 -0.0000 -0.0000
vn -1.0000 -0.0000 -0.0000
vn 0.4572 0.1054 0.8831
vn 0.8795 0.1694 0.4447
vn -0.0990 0.8631 0.4952
vn -0.0000 -0.0000 -1.0000
vn -0.7057 0.2425 0.6657
vn -0.7058 0.2425 0.6657
vn 0.0723 -0.3648 0.9283
vn 0.0990 0.8631 0.4952
vn 0.0990 0.8632 0.4951
vn 0.0990 0.8631 0.4953
vn -0.0723 -0.3647 0.9283
vn -0.4572 0.1057 0.8831
vn 0.7056 0.2423 0.6659
vn 0.6246 0.7809 -0.0000
vn 0.6224 0.7827 -0.0004
vn 0.6245 0.7811 -0.0000
vn 0.6235 0.7818 -0.0001
vn 0.6208 0.7840 -0.0003
vn 0.7711 0.6366 0.0129
vn -0.6225 0.7826 -0.0002
vn -0.8647 0.5020 0.0164
vn -0.8640 0.5032 0.0183
vn -0.8641 0.5030 0.0183
vn -0.8600 0.5100 0.0152
vn -0.8610 0.5086 0.0069
vn -0.8699 0.4933 -0.0000
vn -0.8625 0.5061 -0.0068
vn 0.8654 0.5009 0.0104
vn 0.8641 0.5029 0.0183
vn 0.8742 0.4855 0.0065
vn 0.8701 0.4928 -0.0002
vn 0.8699 0.4932 -0.0000
vn 0.8624 0.5063 -0.0071
vn 0.8625 0.5061 -0.0068
vn 0.8681 0.4961 -0.0180
vn 0.8681 0.4960 -0.0180
vn 0.8680 0.4963 -0.0180
vn -0.8680 0.4962 -0.0180
vn -0.8678 0.4966 -0.0180
vn 0.8699 0.4933 -0.0000
vn 0.8698 0.4933 -0.0000
vn 0.1696 0.8332 -0.5263
vn 0.1719 0.8362 -0.5207
vn 0.1708 0.8346 -0.5238
vn -0.0233 0.5810 -0.8136
vn -0.0236 0.5811 -0.8135
vn 0.0602 0.6503 -0.7573
vn 0.0616 0.6511 -0.7565
vn 0.0609 0.6507 -0.7569
vn -0.0009 -0.1174 -0.9931
vn -0.0055 0.1814 -0.9834
vn 0.0055 0.1814 -0.9834
vn -0.0000 0.1827 -0.9832
vn -0.0000 0.1822 -0.9833
vn 0.1863 0.7699 -0.6103
vn -0.0000 0.8505 -0.5260
vn -0.0000 1.0000 0.0007
vn -0.0000 0.9260 0.3776
vn -0.1386 0.8799 0.4545
vn -0.1213 0.6496 0.7505
vn -0.4798 0.8342 0.2718
vn -0.1246 0.6765 0.7258
vn 0.0515 0.6719 -0.7389
vn -0.0000 0.6724 -0.7402
vn -0.0000 0.9124 -0.4093
vn -0.0515 0.6718 -0.7389
vn -0.1147 0.9493 -0.2926
vn -0.0969 0.9953 0.0005
vn -0.5635 0.8261 -0.0005
vn 0.0968 0.9953 0.0005
vn 0.4798 0.8342 0.2718
vn 0.5635 0.8261 -0.0005
vn 0.2703 0.6466 -0.7134
vn 0.1147 0.9493 -0.2927
vn -0.0000 0.7179 0.6961
vn 0.1213 0.6496 0.7505
vn -0.2707 0.6449 -0.7147
vn -0.5070 0.8505 -0.1399
vn 0.1246 0.6765 0.7258
vn 0.0869 0.8406 0.5346
vn 0.1718 0.3354 -0.9263
vn -0.5577 0.8190 0.1351
vn -0.0869 0.8406 0.5346
vn -0.0000 0.9416 0.3368
vn 0.0902 0.9630 0.2539
vn 0.0823 0.8532 0.5150
vn -0.0000 0.8155 0.5787
vn -0.0823 0.8532 0.5150
vn 0.5579 0.8189 0.1351
vn -0.0902 0.9630 0.2539
vn 0.1386 0.8799 0.4545
vn -0.1863 0.7699 -0.6103
vn -0.4685 0.7982 -0.3787
vn 0.4685 0.7982 -0.3787
vn 0.1376 0.3894 -0.9107
vn -0.1718 0.3354 -0.9263
vn -0.1376 0.3894 -0.9107
vn -0.0000 0.4963 -0.8681
vn -0.0000 0.2846 0.9587
vn 0.0292 0.2846 0.9582
vn 0.0291 0.2847 0.9582
vn -0.0291 0.2847 0.9582
vn -0.0293 0.2845 0.9582
vn -0.0000 -1.0000 -0.0000
vn -0.8617 0.5074 0.0070
vn -0.8706 0.4920 0.0003
vn 0.8721 0.4894 0.0026
vn -0.8701 0.4930 -0.0029
vn 0.8657 0.5004 -0.0087
vn 0.8735 0.4868 -0.0014
vn 0.0232 0.5810 -0.8136
vn -0.1719 0.8362 -0.5207
vn -0.1731 0.8376 -0.5181
vn 0.1731 0.8376 -0.5181
vn 0.0623 0.6515 -0.7561
vn 0.0623 0.6515 -0.7560
vn -0.0616 0.6511 -0.7565
vn -0.0623 0.6516 -0.7560
vn -0.0720 0.6706 0.7383
vn 0.0524 0.8406 0.5391
vn 0.1055 0.8420 0.5290
vn -0.0564 0.8425 0.5358
vn -0.1055 0.8420 0.5290
vn -0.0000 0.5384 -0.8427
vn -0.1377 0.5108 -0.8486
vn 0.1377 0.5108 -0.8486
vn 0.1943 0.4245 -0.8843
vn -0.1943 0.4245 -0.8843
vn -0.1432 0.6607 0.7368
vn 0.0823 0.6764 0.7320
vn 0.1432 0.6607 0.7368
vn 0.0008 0.7023 0.7118
vn 0.0011 0.8246 0.5657
vn -0.8742 0.4855 0.0066
vn -0.8701 0.4925 -0.0180
vn -0.8624 0.5061 -0.0069
vn -0.8646 0.5022 0.0138
vn -0.8625 0.5059 0.0127
vn 0.8707 0.4917 0.0080
vn 0.8650 0.5015 -0.0161
vn 0.8755 0.4831 -0.0065
vn 0.8621 0.5066 0.0139
vn 0.8621 0.5067 0.0080
vn 0.8679 0.4964 -0.0180
vn 0.8683 0.4959 -0.0143
vn -0.8686 0.4954 -0.0150
vn -0.8681 0.4961 -0.0160
vn -0.8668 0.4986 -0.0038
vn -0.0000 0.6171 -0.7869
vn -0.1231 0.6500 -0.7499
vn -0.1294 0.7164 -0.6856
vn 0.1231 0.6500 -0.7499
vn -0.2656 0.5313 -0.8045
vn -0.4472 0.8944 -0.0000
vn 0.2262 0.4524 0.8626
vn 0.2262 0.4524 -0.8626
vn 0.4472 0.8944 -0.0000
vn 0.2656 0.5313 -0.8045
vn -0.8457 -0.4990 0.1891
vn 0.8457 -0.4990 0.1891
vn 0.8543 -0.5042 0.1260
vn 0.8543 -0.5042 -0.1260
vn -0.8460 -0.4993 -0.1870
vn -0.9712 -0.0625 -0.2298
vn -0.6153 -0.7471 -0.2514
vn -0.4591 -0.8852 -0.0749
vn 0.9540 -0.1046 0.2808
vn 0.6271 -0.7330 0.2635
vn 0.4523 -0.8891 0.0699
vn 0.9967 -0.0814 -0.0000
vn 0.6472 -0.7623 -0.0000
vn 0.4606 -0.8840 0.0799
vn -0.9967 -0.0814 -0.0000
vn -0.6472 -0.7623 -0.0000
vn -0.4588 -0.8854 -0.0751
vn -0.0000 0.9934 0.1150
vn -0.0000 0.7668 0.6419
vn 0.0818 0.7543 0.6514
vn 0.4459 -0.4200 -0.7904
vn 0.9712 -0.0625 -0.2298
vn 0.6153 -0.7471 -0.2514
vn -0.0000 -0.5031 -0.8643
vn -0.0000 -0.9669 -0.2553
vn 0.1995 0.9233 0.3284
vn 0.4230 0.6620 0.6187
vn -0.0000 -0.9767 0.2145
vn 0.0342 -0.9689 0.2450
vn 0.0907 -0.6414 0.7619
vn -0.0342 -0.9689 0.2449
vn -0.0907 -0.6414 0.7618
vn -0.4520 -0.5446 0.7065
vn -0.4459 -0.4200 -0.7904
vn 0.5444 -0.1299 0.8287
vn 0.1232 -0.1520 0.9807
vn -0.0000 -0.1540 0.9881
vn -0.0000 -0.6582 0.7528
vn -0.5444 -0.1299 0.8287
vn -0.1232 -0.1520 0.9807
vn 0.4520 -0.5446 0.7065
vn 0.9546 0.0238 0.2968
vn 0.7953 0.3543 0.4920
vn -0.1995 0.9232 0.3284
vn -0.7953 0.3542 0.4919
vn -0.4230 0.6620 0.6187
vn -0.9540 -0.1046 0.2808
vn -0.6271 -0.7330 0.2635
vn -0.0818 0.7544 0.6513
vn -0.9546 0.0238 0.2968
vn -0.5429 0.1063 0.8330
vn 0.5429 0.1063 0.8330
vn -0.1232 0.1517 0.9807
vn -0.0000 0.1537 0.9881
vn 0.1232 0.1517 0.9807
vn -0.4515 0.5372 -0.7124
vn 0.0935 0.6220 -0.7774
vn 0.4514 0.5375 -0.7123
vn -0.0000 0.5903 -0.8072
vn -0.0935 0.6220 -0.7774
vn -0.0000 0.6611 -0.7503
vn 0.9189 0.1649 -0.3584
vn -0.9189 0.1649 -0.3584
vn -0.8218 0.1474 0.5503
vn -0.4524 -0.8891 0.0699
vn 0.8201 0.1520 -0.5517
vn 0.4588 -0.8854 -0.0750
vn -0.9163 0.3625 0.1702
vn 0.7994 0.1263 -0.5873
vn 0.4606 -0.8840 -0.0798
vn -0.7994 0.1263 0.5874
vn -0.4592 -0.8852 0.0749
vn 0.8218 0.1474 0.5503
vn -0.9223 0.3429 0.1782
vn -0.7456 0.5352 0.3971
vn -0.9223 0.3429 -0.1782
vn -0.7456 0.5352 -0.3971
vn 0.7661 -0.0929 0.6360
vn 0.7580 0.5485 0.3529
vn -0.7580 0.5485 0.3529
vn -0.7994 0.1263 -0.5873
vn -0.7622 -0.1214 -0.6359
vn -0.9894 -0.1359 -0.0515
vn -0.7660 -0.0930 -0.6361
vn -0.8201 0.1519 -0.5517
vn -0.7661 -0.0929 0.6360
vn 0.9894 -0.1359 -0.0515
vn 0.9163 0.3625 0.1702
vn 0.7660 -0.0929 -0.6361
vn 0.7510 -0.1062 -0.6517
vn 0.7510 -0.1062 0.6517
vn 0.7994 0.1263 0.5873
vn -0.9887 -0.1403 0.0526
vn -0.9887 -0.1403 -0.0526
vn -0.7621 -0.1214 0.6359
vn 0.1478 0.2568 0.9551
vn -0.1478 0.2569 0.9551
vn 0.8640 0.5032 0.0183
vn -0.8681 0.4961 -0.0180
vn 0.5082 0.8498 -0.1397
vn 0.5579 0.8188 0.1351
vn -0.0000 0.2847 0.9586
vn -0.0623 0.6515 -0.7561
vn 0.1294 0.7164 -0.6856
vt 0.000000 0.000000
s 1
usemtl wire_177028149
f 1/1/1 2/1/2 3/1/3
f 4/1/4 5/1/5 6/1/6
f 7/1/7 8/1/7 9/1/8
f 10/1/9 11/1/9 12/1/10
f 13/1/11 14/1/12 15/1/13
f 16/1/14 17/1/14 18/1/14
f 19/1/15 20/1/15 18/1/15
f 21/1/16 22/1/17 23/1/17
f 24/1/18 25/1/19 26/1/20
f 27/1/21 7/1/21 28/1/22
f 29/1/23 30/1/23 31/1/23
f 32/1/23 33/1/23 34/1/23
f 35/1/24 20/1/24 36/1/24
f 37/1/24 38/1/24 39/1/24
f 18/1/25 17/1/25 40/1/25
f 41/1/26 33/1/26 32/1/26
f 17/1/27 42/1/27 43/1/27
f 38/1/28 44/1/28 45/1/28
f 46/1/23 47/1/23 31/1/23
f 48/1/23 46/1/23 31/1/23
f 42/1/29 49/1/30 50/1/29
f 41/1/31 51/1/31 52/1/31
f 33/1/32 53/1/33 54/1/34
f 18/1/35 55/1/35 50/1/35
f 41/1/36 56/1/36 53/1/36
f 57/1/37 54/1/37 52/1/37
f 58/1/38 11/1/39 29/1/40
f 11/1/39 59/1/41 60/1/42
f 41/1/43 14/1/43 22/1/43
f 20/1/44 61/1/44 37/1/44
f 62/1/45 24/1/46 6/1/47
f 62/1/45 63/1/48 64/1/49
f 4/1/4 19/1/50 64/1/50
f 65/1/51 8/1/51 66/1/51
f 8/1/50 67/1/50 66/1/50
f 21/1/16 68/1/52 69/1/53
f 14/1/12 13/1/11 69/1/54
f 14/1/12 70/1/55 23/1/56
f 10/1/57 71/1/58 72/1/58
f 10/1/59 13/1/60 73/1/61
f 74/1/28 75/1/28 76/1/28
f 77/1/24 78/1/24 36/1/24
f 16/1/24 79/1/24 80/1/24
f 81/1/23 34/1/23 48/1/23
f 82/1/23 48/1/23 31/1/23
f 79/1/24 35/1/24 78/1/24
f 83/1/24 39/1/24 84/1/24
f 59/1/23 58/1/23 85/1/23
f 65/1/62 25/1/63 24/1/62
f 86/1/24 84/1/24 36/1/24
f 14/1/12 11/1/64 72/1/65
f 29/1/23 47/1/23 85/1/23
f 87/1/66 88/1/67 12/1/68
f 65/1/69 89/1/70 9/1/70
f 27/1/71 90/1/72 88/1/73
f 37/1/74 3/1/3 2/1/2
f 37/1/75 44/1/75 38/1/75
f 59/1/76 91/1/77 2/1/78
f 84/1/24 77/1/24 36/1/24
f 85/1/23 74/1/23 76/1/23
f 39/1/24 92/1/24 93/1/24
f 94/1/79 95/1/80 96/1/81
f 97/1/82 98/1/83 99/1/84
f 98/1/83 62/1/85 100/1/86
f 1/1/87 3/1/88 27/1/89
f 101/1/90 7/1/91 27/1/89
f 102/1/92 24/1/93 62/1/85
f 103/1/94 96/1/81 97/1/82
f 21/1/95 13/1/96 103/1/94
f 60/1/97 1/1/87 87/1/98
f 97/1/82 104/1/99 105/1/100
f 96/1/81 102/1/92 98/1/83
f 61/1/101 8/1/102 7/1/91
f 21/1/95 106/1/103 107/1/104
f 95/1/80 94/1/79 108/1/105
f 62/1/85 19/1/106 109/1/107
f 110/1/108 111/1/109 112/1/110
f 110/1/108 113/1/111 114/1/112
f 111/1/109 22/1/113 107/1/104
f 115/1/114 114/1/112 109/1/107
f 116/1/115 105/1/100 106/1/103
f 102/1/92 117/1/116 65/1/117
f 10/1/118 94/1/79 103/1/94
f 96/1/81 95/1/80 117/1/116
f 94/1/79 10/1/118 118/1/119
f 117/1/116 119/1/120 89/1/121
f 95/1/80 120/1/122 119/1/120
f 121/1/123 57/1/124 122/1/125
f 123/1/126 42/1/127 121/1/123
f 270/1/128 258/1/128 204/1/128
f 64/1/50 125/1/129 126/1/130
f 70/1/55 127/1/131 128/1/64
f 261/1/128 259/1/128 271/1/128
f 124/1/50 129/1/132 67/1/50
f 271/1/128 259/1/128 258/1/128
f 72/1/65 130/1/133 131/1/134
f 89/1/70 132/1/69 133/1/69
f 118/1/10 12/1/10 134/1/135
f 28/1/136 9/1/8 133/1/137
f 88/1/67 135/1/138 134/1/138
f 90/1/72 136/1/139 135/1/140
f 90/1/141 28/1/22 137/1/142
f 104/1/99 99/1/84 138/1/143
f 113/1/111 112/1/110 139/1/144
f 112/1/110 107/1/104 140/1/145
f 114/1/112 141/1/146 142/1/147
f 120/1/122 143/1/148 144/1/149
f 120/1/122 108/1/105 145/1/150
f 108/1/105 118/1/119 146/1/151
f 119/1/120 144/1/149 132/1/152
f 99/1/84 100/1/86 147/1/153
f 105/1/100 148/1/154 149/1/155
f 104/1/99 150/1/156 148/1/154
f 100/1/86 109/1/107 142/1/147
f 106/1/103 149/1/155 140/1/145
f 113/1/111 151/1/157 141/1/146
f 5/1/5 126/1/130 152/1/158
f 202/1/128 261/1/128 269/1/128
f 192/1/128 269/1/128 263/1/128
f 268/1/128 271/1/128 270/1/128
f 25/1/19 155/1/159 129/1/132
f 153/1/160 66/1/51 156/1/51
f 63/1/48 6/1/47 152/1/161
f 63/1/48 157/1/162 125/1/129
f 70/1/55 69/1/54 158/1/163
f 71/1/58 159/1/164 130/1/133
f 73/1/165 15/1/13 131/1/134
f 68/1/52 160/1/166 158/1/53
f 68/1/52 23/1/17 128/1/167
f 269/1/128 271/1/128 268/1/128
f 71/1/168 73/1/61 162/1/169
f 257/1/128 270/1/128 195/1/128
f 161/1/62 163/1/170 155/1/159
f 154/1/62 164/1/171 161/1/62
f 126/1/130 125/1/129 157/1/162
f 127/1/131 158/1/163 160/1/166
f 156/1/172 163/1/170 164/1/171
f 131/1/134 130/1/133 159/1/164
f 136/1/173 143/1/148 145/1/150
f 137/1/174 133/1/175 132/1/152
f 135/1/176 145/1/150 146/1/151
f 136/1/173 137/1/174 144/1/149
f 165/1/177 166/1/177 167/1/177
f 78/1/178 167/1/178 168/1/178
f 169/1/179 170/1/179 171/1/179
f 172/1/180 85/1/180 173/1/180
f 47/1/181 171/1/181 173/1/181
f 174/1/182 48/1/182 175/1/182
f 34/1/181 176/1/181 175/1/181
f 167/1/24 166/1/24 177/1/24
f 167/1/24 178/1/24 179/1/24
f 166/1/183 180/1/183 177/1/183
f 175/1/23 181/1/23 182/1/23
f 176/1/23 183/1/23 181/1/23
f 184/1/184 182/1/184 185/1/184
f 173/1/23 186/1/23 187/1/23
f 171/1/23 170/1/23 188/1/23
f 171/1/23 189/1/23 186/1/23
f 190/1/185 187/1/185 191/1/185
f 170/1/186 192/1/186 188/1/186
f 193/1/187 194/1/187 195/1/187
f 92/1/188 196/1/189 197/1/190
f 198/1/191 199/1/192 200/1/193
f 201/1/194 202/1/195 192/1/196
f 203/1/197 204/1/198 180/1/199
f 121/1/200 205/1/201 206/1/202
f 207/1/203 208/1/204 209/1/205
f 210/1/206 211/1/207 212/1/207
f 57/1/208 206/1/202 213/1/209
f 214/1/210 215/1/211 216/1/212
f 210/1/206 207/1/203 217/1/207
f 218/1/213 219/1/214 220/1/215
f 196/1/189 221/1/216 212/1/207
f 222/1/217 223/1/218 216/1/212
f 224/1/219 225/1/220 216/1/212
f 226/1/221 220/1/215 219/1/214
f 227/1/222 219/1/214 225/1/220
f 215/1/211 199/1/192 228/1/223
f 229/1/224 33/1/225 213/1/209
f 42/1/226 17/1/227 230/1/228
f 214/1/210 225/1/220 219/1/214
f 231/1/229 232/1/230 220/1/215
f 121/1/200 42/1/226 233/1/231
f 234/1/232 235/1/233 230/1/228
f 231/1/229 226/1/221 235/1/233
f 198/1/191 222/1/217 228/1/223
f 229/1/224 236/1/234 222/1/217
f 233/1/231 237/1/235 238/1/236
f 237/1/235 227/1/222 224/1/219
f 233/1/231 230/1/228 235/1/233
f 235/1/233 226/1/221 227/1/222
f 205/1/201 238/1/236 239/1/237
f 238/1/236 224/1/219 223/1/218
f 206/1/202 239/1/237 236/1/234
f 239/1/237 223/1/218 222/1/217
f 240/1/238 221/1/216 92/1/188
f 75/1/239 241/1/240 242/1/241
f 241/1/240 207/1/203 210/1/206
f 44/1/242 91/1/243 242/1/241
f 242/1/241 210/1/206 221/1/216
f 75/1/239 74/1/244 241/1/240
f 241/1/240 74/1/244 208/1/204
f 45/1/245 44/1/242 240/1/238
f 209/1/205 217/1/207 207/1/203
f 231/1/229 243/1/246 244/1/247
f 174/1/248 185/1/249 202/1/195
f 17/1/227 80/1/250 234/1/232
f 172/1/251 191/1/252 209/1/205
f 245/1/253 195/1/254 204/1/198
f 221/1/216 196/1/189 92/1/188
f 229/1/224 198/1/191 246/1/255
f 245/1/253 84/1/256 247/1/257
f 39/1/258 248/1/259 247/1/257
f 246/1/255 249/1/260 176/1/261
f 243/1/246 80/1/250 168/1/262
f 93/1/263 250/1/264 248/1/259
f 168/1/262 179/1/24 251/1/265
f 180/1/199 166/1/266 165/1/267
f 243/1/246 252/1/268 244/1/247
f 252/1/268 251/1/265 244/1/247
f 176/1/261 249/1/260 253/1/269
f 200/1/193 249/1/260 246/1/255
f 249/1/260 200/1/193 253/1/269
f 34/1/270 33/1/225 229/1/224
f 234/1/232 80/1/250 243/1/246
f 174/1/248 184/1/271 185/1/249
f 172/1/251 190/1/272 191/1/252
f 192/1/196 170/1/273 169/1/274
f 197/1/190 250/1/264 93/1/263
f 248/1/259 250/1/264 254/1/275
f 248/1/259 255/1/24 256/1/24
f 247/1/257 256/1/24 194/1/276
f 250/1/264 197/1/190 254/1/275
f 245/1/253 193/1/277 195/1/254
f 54/1/278 53/1/278 56/1/278
f 55/1/279 40/1/279 43/1/279
f 217/1/128 209/1/128 191/1/128
f 257/1/128 212/1/128 211/1/128
f 258/1/128 259/1/128 260/1/128
f 261/1/128 202/1/128 185/1/128
f 259/1/128 261/1/128 262/1/128
f 211/1/128 217/1/128 263/1/128
f 180/1/128 204/1/128 258/1/128
f 197/1/128 196/1/128 212/1/128
f 244/1/128 264/1/128 218/1/128
f 265/1/128 266/1/128 215/1/128
f 215/1/128 266/1/128 200/1/128
f 264/1/128 265/1/128 214/1/128
f 180/1/128 267/1/128 264/1/128
f 260/1/128 262/1/128 266/1/128
f 266/1/128 262/1/128 185/1/128
f 267/1/128 260/1/128 265/1/128
f 195/1/128 197/1/128 257/1/128
f 268/1/128 263/1/128 269/1/128
f 270/1/128 257/1/128 268/1/128
f 263/1/128 191/1/128 192/1/128
f 269/1/128 192/1/128 202/1/128
f 258/1/128 270/1/128 271/1/128
f 271/1/128 269/1/128 261/1/128
f 204/1/128 195/1/128 270/1/128
f 1/1/1 60/1/1 59/1/1
f 1/1/1 59/1/1 2/1/2
f 6/1/6 24/1/18 4/1/4
f 9/1/8 28/1/136 7/1/7
f 12/1/10 118/1/10 10/1/9
f 15/1/13 73/1/165 13/1/11
f 19/1/15 4/1/15 20/1/15
f 20/1/15 16/1/15 18/1/15
f 23/1/17 68/1/52 21/1/16
f 26/1/20 4/1/4 24/1/18
f 28/1/22 90/1/141 27/1/21
f 31/1/23 47/1/23 29/1/23
f 34/1/23 81/1/23 32/1/23
f 36/1/24 78/1/24 35/1/24
f 39/1/24 83/1/24 37/1/24
f 40/1/25 55/1/25 18/1/25
f 43/1/27 40/1/27 17/1/27
f 46/1/23 201/1/23 169/1/23
f 46/1/23 169/1/23 47/1/23
f 48/1/23 174/1/23 201/1/23
f 48/1/23 201/1/23 46/1/23
f 50/1/29 43/1/29 42/1/29
f 52/1/31 56/1/31 41/1/31
f 54/1/34 57/1/32 33/1/32
f 50/1/35 49/1/35 18/1/35
f 53/1/36 33/1/36 41/1/36
f 52/1/37 51/1/37 57/1/37
f 58/1/38 59/1/41 11/1/39
f 14/1/38 30/1/38 29/1/40
f 11/1/39 14/1/38 29/1/40
f 41/1/43 32/1/43 81/1/43
f 82/1/43 30/1/43 14/1/43
f 81/1/43 82/1/43 14/1/43
f 41/1/43 81/1/43 14/1/43
f 20/1/44 4/1/44 8/1/44
f 20/1/44 8/1/44 61/1/44
f 6/1/47 63/1/48 62/1/45
f 64/1/49 19/1/49 62/1/45
f 64/1/50 5/1/5 4/1/4
f 66/1/51 153/1/160 65/1/51
f 8/1/50 4/1/4 26/1/20
f 8/1/50 26/1/20 124/1/50
f 8/1/50 124/1/50 67/1/50
f 69/1/53 13/1/280 21/1/16
f 69/1/54 70/1/55 14/1/12
f 23/1/56 22/1/64 14/1/12
f 72/1/58 11/1/58 10/1/57
f 73/1/61 71/1/168 10/1/59
f 77/1/24 203/1/24 165/1/24
f 77/1/24 165/1/24 78/1/24
f 80/1/24 17/1/24 16/1/24
f 48/1/23 82/1/23 81/1/23
f 31/1/23 30/1/23 82/1/23
f 78/1/24 80/1/24 79/1/24
f 84/1/24 86/1/24 83/1/24
f 85/1/23 76/1/23 59/1/23
f 65/1/62 153/1/281 154/1/62
f 65/1/62 154/1/62 161/1/62
f 65/1/62 161/1/62 25/1/63
f 36/1/24 20/1/24 86/1/24
f 72/1/65 15/1/13 14/1/12
f 85/1/23 58/1/23 29/1/23
f 12/1/68 11/1/66 87/1/66
f 9/1/70 8/1/69 65/1/69
f 88/1/73 87/1/71 27/1/71
f 37/1/74 61/1/74 101/1/74
f 37/1/74 101/1/74 3/1/3
f 37/1/75 2/1/78 91/1/77
f 37/1/75 91/1/77 44/1/75
f 59/1/76 76/1/76 75/1/76
f 59/1/76 75/1/76 91/1/77
f 84/1/24 245/1/24 203/1/24
f 84/1/24 203/1/24 77/1/24
f 85/1/23 172/1/23 208/1/23
f 85/1/23 208/1/23 74/1/23
f 39/1/24 38/1/24 45/1/24
f 39/1/24 45/1/24 92/1/24
f 96/1/81 103/1/94 94/1/79
f 99/1/84 104/1/99 97/1/82
f 100/1/86 99/1/84 98/1/83
f 27/1/89 87/1/98 1/1/87
f 27/1/89 3/1/88 101/1/90
f 62/1/85 98/1/83 102/1/92
f 97/1/82 116/1/115 103/1/94
f 103/1/94 116/1/115 21/1/95
f 87/1/98 11/1/282 60/1/97
f 105/1/100 116/1/115 97/1/82
f 98/1/83 97/1/82 96/1/81
f 7/1/91 101/1/90 61/1/101
f 107/1/104 22/1/283 21/1/95
f 108/1/105 120/1/122 95/1/80
f 109/1/107 100/1/86 62/1/85
f 112/1/110 113/1/111 110/1/108
f 114/1/112 115/1/114 110/1/108
f 107/1/104 112/1/110 111/1/109
f 109/1/107 19/1/106 115/1/114
f 106/1/103 21/1/95 116/1/115
f 65/1/117 24/1/93 102/1/92
f 103/1/94 13/1/96 10/1/118
f 117/1/116 102/1/92 96/1/81
f 118/1/119 108/1/105 94/1/79
f 89/1/121 65/1/117 117/1/116
f 119/1/120 117/1/116 95/1/80
f 122/1/125 272/1/284 121/1/123
f 121/1/123 272/1/284 123/1/126
f 265/1/128 264/1/128 267/1/128
f 126/1/130 5/1/5 64/1/50
f 128/1/64 23/1/56 70/1/55
f 185/1/128 200/1/128 266/1/128
f 124/1/50 26/1/20 129/1/132
f 129/1/132 156/1/50 66/1/50
f 129/1/132 66/1/50 67/1/50
f 266/1/128 265/1/128 260/1/128
f 131/1/134 15/1/13 72/1/65
f 133/1/69 9/1/70 89/1/70
f 134/1/135 146/1/9 118/1/10
f 133/1/137 137/1/137 28/1/136
f 134/1/138 12/1/68 88/1/67
f 135/1/140 88/1/73 90/1/72
f 137/1/142 136/1/285 90/1/141
f 138/1/143 150/1/156 104/1/99
f 139/1/144 151/1/157 113/1/111
f 140/1/145 139/1/144 112/1/110
f 142/1/147 109/1/107 114/1/112
f 144/1/149 119/1/120 120/1/122
f 145/1/150 143/1/148 120/1/122
f 146/1/151 145/1/150 108/1/105
f 132/1/152 89/1/121 119/1/120
f 147/1/153 138/1/143 99/1/84
f 149/1/155 106/1/103 105/1/100
f 148/1/154 105/1/100 104/1/99
f 142/1/147 147/1/153 100/1/86
f 140/1/145 107/1/104 106/1/103
f 141/1/146 114/1/112 113/1/111
f 152/1/158 6/1/6 5/1/5
f 264/1/128 244/1/128 180/1/128
f 214/1/128 218/1/128 264/1/128
f 200/1/128 199/1/128 215/1/128
f 129/1/132 26/1/20 25/1/19
f 156/1/51 164/1/51 153/1/160
f 152/1/161 157/1/162 63/1/48
f 125/1/129 64/1/49 63/1/48
f 158/1/163 127/1/131 70/1/55
f 130/1/133 72/1/58 71/1/58
f 131/1/134 162/1/165 73/1/165
f 158/1/53 69/1/53 68/1/52
f 128/1/167 160/1/166 68/1/52
f 215/1/128 214/1/128 265/1/128
f 162/1/169 159/1/164 71/1/168
f 218/1/128 232/1/128 244/1/128
f 155/1/159 25/1/63 161/1/62
f 154/1/62 153/1/281 164/1/171
f 164/1/171 163/1/170 161/1/62
f 157/1/162 152/1/161 126/1/130
f 160/1/166 128/1/167 127/1/131
f 156/1/172 129/1/132 155/1/159
f 156/1/172 155/1/159 163/1/170
f 159/1/164 162/1/169 131/1/134
f 145/1/150 135/1/176 136/1/173
f 132/1/152 144/1/149 137/1/174
f 146/1/151 134/1/286 135/1/176
f 144/1/149 143/1/148 136/1/173
f 167/1/177 78/1/177 165/1/177
f 168/1/178 80/1/178 78/1/178
f 171/1/179 47/1/179 169/1/179
f 173/1/180 190/1/180 172/1/180
f 173/1/181 85/1/181 47/1/181
f 175/1/182 184/1/182 174/1/182
f 175/1/181 48/1/181 34/1/181
f 177/1/24 178/1/24 167/1/24
f 179/1/24 168/1/24 167/1/24
f 182/1/23 184/1/23 175/1/23
f 181/1/23 175/1/23 176/1/23
f 187/1/23 190/1/23 173/1/23
f 188/1/23 189/1/23 171/1/23
f 186/1/23 173/1/23 171/1/23
f 197/1/190 93/1/263 92/1/188
f 200/1/193 246/1/255 198/1/191
f 192/1/196 169/1/274 201/1/194
f 180/1/199 165/1/267 203/1/197
f 206/1/202 57/1/208 121/1/200
f 212/1/207 221/1/216 210/1/206
f 213/1/209 33/1/225 57/1/208
f 216/1/212 225/1/220 214/1/210
f 217/1/207 211/1/207 210/1/206
f 220/1/215 232/1/230 218/1/213
f 216/1/212 228/1/223 222/1/217
f 216/1/212 223/1/218 224/1/219
f 219/1/214 227/1/222 226/1/221
f 225/1/220 224/1/219 227/1/222
f 228/1/223 216/1/212 215/1/211
f 213/1/209 236/1/234 229/1/224
f 230/1/228 233/1/231 42/1/226
f 219/1/214 218/1/213 214/1/210
f 220/1/215 226/1/221 231/1/229
f 233/1/231 205/1/201 121/1/200
f 230/1/228 17/1/227 234/1/232
f 235/1/233 234/1/232 231/1/229
f 228/1/223 199/1/192 198/1/191
f 222/1/217 198/1/191 229/1/224
f 238/1/236 205/1/201 233/1/231
f 224/1/219 238/1/236 237/1/235
f 235/1/233 237/1/235 233/1/231
f 227/1/222 237/1/235 235/1/233
f 239/1/237 206/1/202 205/1/201
f 223/1/218 239/1/237 238/1/236
f 236/1/234 213/1/209 206/1/202
f 222/1/217 236/1/234 239/1/237
f 92/1/188 45/1/245 240/1/238
f 242/1/241 91/1/243 75/1/239
f 210/1/206 242/1/241 241/1/240
f 242/1/241 240/1/238 44/1/242
f 221/1/216 240/1/238 242/1/241
f 208/1/204 207/1/203 241/1/240
f 244/1/247 232/1/230 231/1/229
f 202/1/195 201/1/194 174/1/248
f 209/1/205 208/1/204 172/1/251
f 204/1/198 203/1/197 245/1/253
f 246/1/255 34/1/270 229/1/224
f 247/1/257 193/1/277 245/1/253
f 247/1/257 84/1/256 39/1/258
f 176/1/261 34/1/270 246/1/255
f 168/1/262 252/1/268 243/1/246
f 248/1/259 39/1/258 93/1/263
f 251/1/265 252/1/268 168/1/262
f 253/1/269 183/1/23 176/1/261
f 243/1/246 231/1/229 234/1/232
f 254/1/275 255/1/24 248/1/259
f 256/1/24 247/1/257 248/1/259
f 194/1/276 193/1/277 247/1/257
f 56/1/278 52/1/278 54/1/278
f 43/1/279 50/1/279 55/1/279
f 191/1/128 263/1/128 217/1/128
f 211/1/128 268/1/128 257/1/128
f 260/1/128 267/1/128 258/1/128
f 185/1/128 262/1/128 261/1/128
f 262/1/128 260/1/128 259/1/128
f 263/1/128 268/1/128 211/1/128
f 258/1/128 267/1/128 180/1/128
f 212/1/128 257/1/128 197/1/128
o Object002.001
v -0.341100 0.841300 -0.078400
v 0.402100 0.390000 0.462000
v 0.839200 0.344900 0.414500
v -0.472200 0.390000 0.462000
v -0.909300 0.344900 0.414500
v -0.647100 0.796100 -0.125900
v 0.271000 0.841300 -0.078400
v 0.577000 0.796100 -0.125900
v -0.035000 0.855500 -0.078400
v -0.035000 0.404300 0.462000
vn 0.1018 0.7851 0.6110
vn 0.1423 0.7952 0.5894
vn 0.1893 0.7777 0.5995
vn -0.0012 0.7705 0.6374
vn -0.0008 0.7671 0.6415
vn -0.1192 0.7734 0.6226
vn 0.1091 0.7686 0.6304
vn -0.0978 0.7832 0.6141
vn -0.1893 0.7777 0.5995
vn -0.1423 0.7952 0.5894
vt 0.633821 0.639998
vt 0.748256 0.652250
vt 0.710099 0.742494
vt 0.496199 0.635320
vt 0.496388 0.743865
vt 0.403425 0.742504
vt 0.589316 0.742420
vt 0.367155 0.638886
vt 0.277725 0.742662
vt 0.239190 0.650029
s 1
usemtl wire_177028149
f 274/2/287 275/3/288 280/4/289
f 282/5/290 281/6/291 273/7/292
f 282/5/290 274/2/287 279/8/293
f 276/9/294 273/7/292 278/10/295
f 280/4/289 279/8/293 274/2/287
f 273/7/292 276/9/294 282/5/290
f 279/8/293 281/6/291 282/5/290
f 278/10/295 277/11/296 276/9/294
