# 3ds Max Wavefront OBJ Exporter v0.99 - (c)2007 guruware
# File Created: 17.03.2025 17:09:32

mtllib carro_cofre.mtl

#
# object Object
#

v  0.9582 -0.0659 1.3319
v  0.9571 -0.0159 0.0444
v  0.4727 0.0341 0.0944
v  -0.4965 -0.0159 1.3819
v  -0.0117 -0.0159 1.3969
v  -0.0117 0.0491 0.0944
v  0.4733 -0.0159 1.3819
v  -0.9814 -0.0659 1.3319
v  -0.4960 0.0341 0.0944
v  -0.9804 -0.0159 0.0444
# 10 vertices

vn 0.3896 0.6057 0.6937
vn 0.5579 0.8188 0.1351
vn 0.0902 0.9630 0.2539
vn -0.2288 0.8641 0.4483
vn 0.0000 0.9990 0.0443
vn 0.0000 0.9416 0.3368
vn 0.2288 0.8641 0.4483
vn -0.3890 0.6058 0.6940
vn -0.0902 0.9630 0.2539
vn -0.5576 0.8190 0.1351
# 10 vertex normals

vt 0.0000 0.0000 0.0000
# 1 texture coords

o Object
g Object
usemtl wire_177028149
s 1
f 1/1/1 2/1/2 3/1/3 
f 4/1/4 5/1/5 6/1/6 
f 7/1/7 3/1/3 6/1/6 
f 8/1/8 4/1/4 9/1/9 
f 3/1/3 7/1/7 1/1/1 
f 6/1/6 9/1/9 4/1/4 
f 6/1/6 5/1/5 7/1/7 
f 9/1/9 10/1/10 8/1/8 
# 0 polygons - 8 triangles

