# 3ds Max Wavefront OBJ Exporter v0.99 - (c)2007 guruware
# File Created: 17.03.2025 17:06:47

mtllib carro_rueda4.mtl

#
# object Object004
#

v  0.4055 -0.0030 -0.4014
v  0.4055 -0.0810 -0.3937
v  0.2055 -0.0810 -0.3937
v  0.4055 -0.1561 -0.3709
v  0.2055 -0.1561 -0.3709
v  0.4055 -0.2252 -0.3340
v  0.2055 -0.2252 -0.3340
v  0.4055 -0.2858 -0.2842
v  0.2055 -0.2858 -0.2842
v  0.4055 -0.3356 -0.2236
v  0.2055 -0.3356 -0.2236
v  0.4055 -0.3725 -0.1544
v  0.2055 -0.3725 -0.1544
v  0.4055 -0.3953 -0.0794
v  0.2055 -0.3953 -0.0794
v  0.4055 -0.4030 -0.0014
v  0.2055 -0.4030 -0.0014
v  0.4055 -0.3953 0.0767
v  0.2055 -0.3953 0.0767
v  0.4055 -0.3725 0.1517
v  0.2055 -0.3725 0.1517
v  0.4055 -0.3356 0.2209
v  0.2055 -0.3356 0.2209
v  0.4055 -0.2858 0.2815
v  0.2055 -0.2858 0.2815
v  0.4055 -0.2252 0.3312
v  0.2055 -0.2252 0.3312
v  0.4055 -0.1561 0.3682
v  0.2055 -0.1561 0.3682
v  0.4055 -0.0810 0.3909
v  0.2055 -0.0810 0.3909
v  0.4055 -0.0030 0.3986
v  0.2055 -0.0030 0.3986
v  0.4055 0.0750 0.3909
v  0.2055 0.0750 0.3909
v  0.4055 0.1501 0.3682
v  0.2055 0.1501 0.3682
v  0.4055 0.2192 0.3312
v  0.2055 0.2192 0.3312
v  0.4055 0.2799 0.2815
v  0.2055 0.2799 0.2815
v  0.4055 0.3296 0.2209
v  0.2055 0.3296 0.2209
v  0.4055 0.3666 0.1517
v  0.2055 0.3666 0.1517
v  0.4055 0.3893 0.0767
v  0.2055 0.3893 0.0767
v  0.4055 0.3970 -0.0014
v  0.2055 0.3970 -0.0014
v  0.4055 0.3893 -0.0794
v  0.2055 0.3893 -0.0794
v  0.4055 0.3666 -0.1544
v  0.2055 0.3666 -0.1544
v  0.4055 0.3296 -0.2236
v  0.2055 0.3296 -0.2236
v  0.4055 0.2799 -0.2842
v  0.2055 0.2799 -0.2842
v  0.4055 0.2192 -0.3340
v  0.2055 0.2192 -0.3340
v  0.4055 0.1501 -0.3709
v  0.2055 0.1501 -0.3709
v  0.4480 0.3481 0.1441
v  0.4480 0.3697 0.0728
v  0.4055 0.0750 -0.3937
v  0.2055 0.0750 -0.3937
v  0.2055 -0.0030 -0.4014
v  0.1630 -0.0030 -0.3814
v  0.1630 0.0711 -0.3741
v  0.4480 -0.2717 0.2673
v  0.4480 -0.2045 0.2002
v  0.4480 -0.1613 0.2356
v  0.1630 0.3130 -0.2125
v  0.1630 0.2340 -0.1597
v  0.1630 0.2603 -0.1104
v  0.1630 -0.3541 -0.1468
v  0.1630 -0.3189 -0.2125
v  0.4480 0.0711 -0.3741
v  0.4480 -0.0030 -0.3814
v  0.1630 -0.0771 0.3713
v  0.1630 -0.1484 0.3497
v  0.4480 -0.3189 -0.2125
v  0.4480 -0.3541 -0.1468
v  0.1630 0.3770 -0.0014
v  0.1630 0.3697 0.0728
v  0.4480 -0.1484 0.3497
v  0.4480 -0.0771 0.3713
v  0.4480 0.3770 -0.0014
v  0.1630 -0.3757 -0.0755
v  0.1630 -0.0030 0.3786
v  0.4480 -0.3757 -0.0755
v  0.1630 0.3697 -0.0755
v  0.4480 -0.0030 0.3786
v  0.4480 0.3697 -0.0755
v  0.1630 -0.3830 -0.0014
v  0.1630 0.0711 0.3713
v  0.4480 -0.3830 -0.0014
v  0.1630 0.3481 -0.1468
v  0.4480 0.0711 0.3713
v  0.4480 0.3481 -0.1468
v  0.1630 -0.3757 0.0728
v  0.1630 0.1424 0.3497
v  0.4480 -0.3757 0.0728
v  0.1630 -0.0771 -0.3741
v  0.4480 0.1424 0.3497
v  0.4480 -0.0771 -0.3741
v  0.4480 0.3130 -0.2125
v  0.1630 -0.3541 0.1441
v  0.1630 0.2081 0.3146
v  0.4480 -0.3541 0.1441
v  0.1630 0.2657 -0.2701
v  0.4480 0.2081 0.3146
v  0.1630 -0.1484 -0.3524
v  0.4480 0.2657 -0.2701
v  0.1630 -0.3189 0.2097
v  0.4480 -0.1484 -0.3524
v  0.1630 0.2657 0.2673
v  0.4480 -0.3189 0.2097
v  0.1630 0.2081 -0.3173
v  0.4480 0.2657 0.2673
v  0.1630 -0.2141 -0.3173
v  0.4480 0.2081 -0.3173
v  0.1630 -0.2717 0.2673
v  0.4480 -0.2141 -0.3173
v  0.1630 0.3130 0.2097
v  0.1630 0.1424 -0.3524
v  0.4480 0.3130 0.2097
v  0.1630 -0.2717 -0.2701
v  0.4480 0.1424 -0.3524
v  0.1630 -0.2141 0.3146
v  0.4480 -0.2717 -0.2701
v  0.1630 0.3481 0.1441
v  0.4480 -0.2141 0.3146
v  0.4480 -0.0030 0.2836
v  0.4338 -0.0030 0.2551
v  0.4338 0.0471 0.2502
v  0.1630 -0.2825 -0.0570
v  0.1630 -0.2663 -0.1104
v  0.1630 -0.1121 0.2619
v  0.1630 -0.1613 0.2356
v  0.1630 0.2340 0.1570
v  0.1630 0.1985 0.2002
v  0.1630 -0.0586 -0.2809
v  0.1630 -0.0030 -0.2864
v  0.1630 0.1985 -0.2029
v  0.1630 -0.2880 -0.0014
v  0.1630 -0.0586 0.2782
v  0.1630 0.2603 0.1077
v  0.1630 -0.1121 -0.2647
v  0.1630 0.1553 -0.2383
v  0.1630 -0.2825 0.0542
v  0.1630 -0.0030 0.2836
v  0.1630 0.2765 0.0542
v  0.1630 -0.1613 -0.2383
v  0.1630 0.1061 -0.2647
v  0.1630 -0.2663 0.1077
v  0.1630 0.0526 0.2782
v  0.1630 0.2820 -0.0014
v  0.1630 -0.2045 -0.2029
v  0.1630 0.0526 -0.2809
v  0.1630 -0.2400 0.1570
v  0.1630 0.1061 0.2619
v  0.1630 0.2765 -0.0570
v  0.1630 -0.2400 -0.1597
v  0.1630 -0.2045 0.2002
v  0.1630 0.1553 0.2356
v  0.1773 -0.1011 -0.2383
v  0.1773 -0.0530 -0.2529
v  0.4480 0.1553 0.2356
v  0.4480 0.1985 0.2002
v  0.4480 0.2603 -0.1104
v  0.4480 0.2340 -0.1597
v  0.4480 -0.2663 -0.1104
v  0.4480 -0.2825 -0.0570
v  0.4480 -0.1121 0.2619
v  0.4480 0.2340 0.1570
v  0.4480 -0.0030 -0.2864
v  0.4480 -0.0586 -0.2809
v  0.4480 0.1985 -0.2029
v  0.4480 -0.2880 -0.0014
v  0.4480 -0.0586 0.2782
v  0.4480 0.2603 0.1077
v  0.4480 -0.1121 -0.2647
v  0.4480 0.1553 -0.2383
v  0.4480 -0.2825 0.0542
v  0.4480 0.2765 0.0542
v  0.4480 -0.1613 -0.2383
v  0.4480 0.1061 -0.2647
v  0.4480 -0.2663 0.1077
v  0.4480 0.0526 0.2782
v  0.4480 0.2820 -0.0014
v  0.4480 -0.2045 -0.2029
v  0.4480 0.0526 -0.2809
v  0.4480 -0.2400 0.1570
v  0.4480 0.1061 0.2619
v  0.4480 0.2765 -0.0570
v  0.4480 -0.2400 -0.1597
v  0.1773 0.1395 -0.2146
v  0.1773 0.1784 -0.1827
v  0.1773 -0.1455 -0.2146
v  0.4338 0.0952 0.2356
v  0.1773 0.0952 -0.2383
v  0.1773 -0.1844 -0.1827
v  0.4338 0.1395 0.2119
v  0.1773 0.0471 -0.2529
v  0.1773 -0.2163 -0.1439
v  0.4338 0.1784 0.1800
v  0.1773 -0.0030 -0.2579
v  0.1773 -0.2400 -0.0995
v  0.4338 0.2103 0.1411
v  0.1773 -0.2546 -0.0514
v  0.4338 0.2340 0.0968
v  0.1773 -0.2595 -0.0014
v  0.4338 0.2486 0.0487
v  0.1773 -0.2546 0.0487
v  0.4338 0.2535 -0.0014
v  0.1773 -0.2400 0.0968
v  0.4338 0.2486 -0.0514
v  0.1773 -0.2163 0.1411
v  0.4338 0.2340 -0.0995
v  0.1773 -0.1844 0.1800
v  0.4338 0.2103 -0.1439
v  0.4338 -0.0030 -0.2579
v  0.4338 -0.0530 -0.2529
v  0.1773 -0.1455 0.2119
v  0.4338 0.1784 -0.1827
v  0.4338 -0.1011 -0.2383
v  0.1773 -0.1011 0.2356
v  0.4338 0.1395 -0.2146
v  0.4338 -0.1455 -0.2146
v  0.1773 -0.0530 0.2502
v  0.4338 0.0952 -0.2383
v  0.4338 -0.1844 -0.1827
v  0.1773 -0.0030 0.2551
v  0.4338 0.0471 -0.2529
v  0.4338 -0.2163 -0.1439
v  0.1773 0.0471 0.2502
v  0.4338 -0.2400 -0.0995
v  0.1773 0.0952 0.2356
v  0.4338 -0.2546 -0.0514
v  0.1773 0.1395 0.2119
v  0.4338 -0.2595 -0.0014
v  0.1773 0.1784 0.1800
v  0.4338 -0.2546 0.0487
v  0.1773 0.2103 0.1411
v  0.4338 -0.2400 0.0968
v  0.1773 0.2340 0.0968
v  0.4338 -0.2163 0.1411
v  0.1773 0.2486 0.0487
v  0.4338 -0.1844 0.1800
v  0.1773 0.2535 -0.0014
v  0.4338 -0.1455 0.2119
v  0.1773 0.2486 -0.0514
v  0.4338 -0.1011 0.2356
v  0.1773 0.2340 -0.0995
v  0.4338 -0.0530 0.2502
v  0.1773 0.2103 -0.1439
v  0.1773 0.0470 0.2502
v  0.4338 0.0470 0.2502
# 258 vertices

vn 0.2153 0.0000 -0.9765
vn 0.2153 -0.1905 -0.9578
vn -0.2153 -0.1905 -0.9578
vn 0.2153 -0.3737 -0.9022
vn -0.2153 -0.3737 -0.9022
vn 0.2153 -0.5425 -0.8120
vn -0.2153 -0.5425 -0.8120
vn 0.2153 -0.6905 -0.6905
vn -0.2153 -0.6905 -0.6905
vn 0.2153 -0.8120 -0.5425
vn -0.2153 -0.8120 -0.5425
vn 0.2153 -0.9022 -0.3737
vn -0.2153 -0.9022 -0.3737
vn 0.2153 -0.9578 -0.1905
vn -0.2153 -0.9578 -0.1905
vn 0.2153 -0.9765 0.0000
vn -0.2153 -0.9765 0.0000
vn 0.2153 -0.9578 0.1905
vn -0.2153 -0.9578 0.1905
vn 0.2153 -0.9022 0.3737
vn -0.2153 -0.9022 0.3737
vn 0.2153 -0.8120 0.5425
vn -0.2153 -0.8120 0.5425
vn 0.2153 -0.6905 0.6905
vn -0.2153 -0.6905 0.6905
vn 0.2153 -0.5425 0.8120
vn -0.2153 -0.5425 0.8120
vn 0.2153 -0.3737 0.9022
vn -0.2153 -0.3737 0.9022
vn 0.2153 -0.1905 0.9578
vn -0.2153 -0.1905 0.9578
vn 0.2153 0.0000 0.9765
vn -0.2153 0.0000 0.9765
vn 0.2153 0.1905 0.9578
vn -0.2153 0.1905 0.9578
vn 0.2153 0.3737 0.9022
vn -0.2153 0.3737 0.9022
vn 0.2153 0.5425 0.8120
vn -0.2153 0.5425 0.8120
vn 0.2153 0.6905 0.6905
vn -0.2153 0.6905 0.6905
vn 0.2153 0.8120 0.5425
vn -0.2153 0.8120 0.5425
vn 0.2153 0.9022 0.3737
vn -0.2153 0.9022 0.3737
vn 0.2153 0.9578 0.1905
vn -0.2153 0.9578 0.1905
vn 0.2153 0.9765 0.0000
vn -0.2153 0.9765 0.0000
vn 0.2153 0.9578 -0.1905
vn -0.2153 0.9578 -0.1905
vn 0.2153 0.9022 -0.3737
vn -0.2153 0.9022 -0.3737
vn 0.2153 0.8120 -0.5425
vn -0.2153 0.8120 -0.5425
vn 0.2153 0.6905 -0.6905
vn -0.2153 0.6905 -0.6905
vn 0.2153 0.5425 -0.8120
vn -0.2153 0.5425 -0.8120
vn 0.2153 0.3737 -0.9022
vn -0.2153 0.3737 -0.9022
vn 0.8293 0.5163 0.2138
vn 0.8293 0.5481 0.1090
vn 0.2153 0.1905 -0.9578
vn -0.2153 0.1905 -0.9578
vn -0.2153 0.0000 -0.9765
vn -0.8293 0.0000 -0.5588
vn -0.8293 0.1090 -0.5481
vn 0.8292 -0.3952 0.3952
vn 0.9764 0.1528 -0.1528
vn 0.9764 0.1200 -0.1796
vn -0.8293 0.4646 -0.3105
vn -0.9764 -0.1796 0.1200
vn -0.9764 -0.1996 0.0827
vn -0.8293 -0.5163 -0.2138
vn -0.8293 -0.4646 -0.3105
vn 0.8293 0.1090 -0.5481
vn 0.8293 0.0000 -0.5588
vn -0.8293 -0.1090 0.5481
vn -0.8293 -0.2138 0.5163
vn 0.8293 -0.4646 -0.3105
vn 0.8293 -0.5163 -0.2138
vn -0.8293 0.5588 0.0000
vn -0.8293 0.5481 0.1090
vn 0.8293 -0.2138 0.5163
vn 0.8293 -0.1090 0.5481
vn 0.8293 0.5588 0.0000
vn -0.8293 -0.5481 -0.1090
vn -0.8293 0.0000 0.5588
vn 0.8293 -0.5481 -0.1090
vn -0.8293 0.5481 -0.1090
vn 0.8293 0.0000 0.5588
vn 0.8293 0.5481 -0.1090
vn -0.8293 -0.5588 0.0000
vn -0.8293 0.1090 0.5481
vn 0.8293 -0.5588 0.0000
vn -0.8293 0.5163 -0.2138
vn 0.8293 0.1090 0.5481
vn 0.8293 0.5163 -0.2138
vn -0.8293 -0.5481 0.1090
vn -0.8293 0.2138 0.5163
vn 0.8293 -0.5481 0.1090
vn -0.8293 -0.1090 -0.5481
vn 0.8293 0.2138 0.5163
vn 0.8293 -0.1090 -0.5481
vn 0.8293 0.4646 -0.3105
vn -0.8293 -0.5163 0.2138
vn -0.8293 0.3105 0.4646
vn 0.8293 -0.5163 0.2138
vn -0.8292 0.3952 -0.3952
vn 0.8293 0.3105 0.4646
vn -0.8293 -0.2138 -0.5163
vn 0.8292 0.3952 -0.3952
vn -0.8293 -0.4646 0.3105
vn 0.8293 -0.2138 -0.5163
vn -0.8292 0.3952 0.3952
vn 0.8293 -0.4646 0.3105
vn -0.8293 0.3105 -0.4646
vn 0.8292 0.3952 0.3952
vn -0.8293 -0.3105 -0.4646
vn 0.8293 0.3105 -0.4646
vn -0.8292 -0.3952 0.3952
vn 0.8293 -0.3105 -0.4646
vn -0.8293 0.4646 0.3105
vn -0.8293 0.2138 -0.5163
vn 0.8293 0.4646 0.3105
vn -0.8292 -0.3952 -0.3952
vn 0.8293 0.2138 -0.5163
vn -0.8293 -0.3105 0.4646
vn 0.8292 -0.3952 -0.3952
vn -0.8293 0.5163 0.2138
vn 0.8293 -0.3105 0.4646
vn 0.9764 0.0000 -0.2160
vn 0.8944 0.0000 -0.4472
vn 0.8944 -0.0872 -0.4386
vn -0.9764 0.2119 0.0421
vn -0.9764 0.1996 0.0827
vn -0.9764 0.0827 -0.1996
vn -0.9764 0.1200 -0.1796
vn -0.9764 -0.1796 -0.1200
vn -0.9764 -0.1528 -0.1528
vn -0.9764 0.0421 0.2119
vn -0.9764 0.0000 0.2160
vn -0.9764 -0.1528 0.1528
vn -0.9764 0.2160 0.0000
vn -0.9764 0.0421 -0.2119
vn -0.9764 -0.1996 -0.0827
vn -0.9764 0.0827 0.1996
vn -0.9764 -0.1200 0.1796
vn -0.9764 0.2119 -0.0421
vn -0.9764 0.0000 -0.2160
vn -0.9764 -0.2119 -0.0421
vn -0.9764 0.1200 0.1796
vn -0.9764 -0.0827 0.1996
vn -0.9764 0.1996 -0.0827
vn -0.9764 -0.0421 -0.2119
vn -0.9764 -0.2160 0.0000
vn -0.9764 0.1528 0.1528
vn -0.9764 -0.0421 0.2119
vn -0.9764 0.1796 -0.1200
vn -0.9764 -0.0827 -0.1996
vn -0.9764 -0.2119 0.0421
vn -0.9764 0.1796 0.1200
vn -0.9764 0.1528 -0.1528
vn -0.9764 -0.1200 -0.1796
vn -0.8944 0.1711 0.4132
vn -0.8944 0.0872 0.4386
vn 0.9764 -0.1200 -0.1796
vn 0.9764 -0.1528 -0.1528
vn 0.9764 -0.1996 0.0827
vn 0.9764 -0.1796 0.1200
vn 0.9764 0.1996 0.0827
vn 0.9764 0.2119 0.0421
vn 0.9764 0.0827 -0.1996
vn 0.9764 -0.1796 -0.1200
vn 0.9764 0.0000 0.2160
vn 0.9764 0.0421 0.2119
vn 0.9764 -0.1528 0.1528
vn 0.9764 0.2160 0.0000
vn 0.9764 0.0421 -0.2119
vn 0.9764 -0.1996 -0.0827
vn 0.9764 0.0827 0.1996
vn 0.9764 -0.1200 0.1796
vn 0.9764 0.2119 -0.0421
vn 0.9764 -0.2119 -0.0421
vn 0.9764 0.1200 0.1796
vn 0.9764 -0.0827 0.1996
vn 0.9764 0.1996 -0.0827
vn 0.9764 -0.0421 -0.2119
vn 0.9764 -0.2160 0.0000
vn 0.9764 0.1528 0.1528
vn 0.9764 -0.0421 0.2119
vn 0.9764 0.1796 -0.1200
vn 0.9764 -0.0827 -0.1996
vn 0.9764 -0.2119 0.0421
vn 0.9764 0.1796 0.1200
vn -0.8944 -0.2485 0.3718
vn -0.8944 -0.3162 0.3162
vn -0.8944 0.2485 0.3718
vn 0.8944 -0.1711 -0.4132
vn -0.8944 -0.1711 0.4132
vn -0.8944 0.3162 0.3162
vn 0.8944 -0.2485 -0.3718
vn -0.8944 -0.0872 0.4386
vn -0.8944 0.3718 0.2485
vn 0.8944 -0.3162 -0.3162
vn -0.8944 0.0000 0.4472
vn -0.8944 0.4132 0.1711
vn 0.8944 -0.3718 -0.2485
vn -0.8944 0.4386 0.0872
vn 0.8944 -0.4132 -0.1711
vn -0.8944 0.4472 0.0000
vn 0.8944 -0.4386 -0.0872
vn -0.8944 0.4386 -0.0872
vn 0.8944 -0.4472 0.0000
vn -0.8944 0.4132 -0.1711
vn 0.8944 -0.4386 0.0872
vn -0.8944 0.3718 -0.2485
vn 0.8944 -0.4132 0.1711
vn -0.8944 0.3162 -0.3162
vn 0.8944 -0.3718 0.2485
vn 0.8944 0.0000 0.4472
vn 0.8944 0.0872 0.4386
vn -0.8944 0.2485 -0.3718
vn 0.8944 -0.3162 0.3162
vn 0.8944 0.1711 0.4132
vn -0.8944 0.1711 -0.4132
vn 0.8944 -0.2485 0.3718
vn 0.8944 0.2485 0.3718
vn -0.8944 0.0872 -0.4386
vn 0.8944 -0.1711 0.4132
vn 0.8944 0.3162 0.3162
vn -0.8944 0.0000 -0.4472
vn 0.8944 -0.0872 0.4386
vn 0.8944 0.3718 0.2485
vn -0.8944 -0.0872 -0.4386
vn 0.8944 0.4132 0.1711
vn -0.8944 -0.1711 -0.4132
vn 0.8944 0.4386 0.0872
vn -0.8944 -0.2485 -0.3718
vn 0.8944 0.4472 0.0000
vn -0.8944 -0.3162 -0.3162
vn 0.8944 0.4386 -0.0872
vn -0.8944 -0.3718 -0.2485
vn 0.8944 0.4132 -0.1711
vn -0.8944 -0.4132 -0.1711
vn 0.8944 0.3718 -0.2485
vn -0.8944 -0.4386 -0.0872
vn 0.8944 0.3162 -0.3162
vn -0.8944 -0.4472 0.0000
vn 0.8944 0.2485 -0.3718
vn -0.8944 -0.4386 0.0872
vn 0.8944 0.1711 -0.4132
vn -0.8944 -0.4132 0.1711
vn 0.8944 0.0872 -0.4386
vn -0.8944 -0.3718 0.2485
vn -1.0000 0.0000 0.0000
vn 1.0000 -0.0000 0.0000
# 258 vertex normals

vt 0.0000 0.0000 0.0000
# 1 texture coords

o Object004
g Object004
usemtl wire_177028149
s 1
f 1/1/1 2/1/2 3/1/3 
f 2/1/2 4/1/4 5/1/5 
f 4/1/4 6/1/6 7/1/7 
f 6/1/6 8/1/8 9/1/9 
f 8/1/8 10/1/10 11/1/11 
f 10/1/10 12/1/12 13/1/13 
f 12/1/12 14/1/14 15/1/15 
f 14/1/14 16/1/16 17/1/17 
f 16/1/16 18/1/18 19/1/19 
f 18/1/18 20/1/20 21/1/21 
f 20/1/20 22/1/22 23/1/23 
f 22/1/22 24/1/24 25/1/25 
f 24/1/24 26/1/26 27/1/27 
f 26/1/26 28/1/28 29/1/29 
f 28/1/28 30/1/30 31/1/31 
f 30/1/30 32/1/32 33/1/33 
f 32/1/32 34/1/34 35/1/35 
f 34/1/34 36/1/36 37/1/37 
f 36/1/36 38/1/38 39/1/39 
f 38/1/38 40/1/40 41/1/41 
f 40/1/40 42/1/42 43/1/43 
f 42/1/42 44/1/44 45/1/45 
f 44/1/44 46/1/46 47/1/47 
f 46/1/46 48/1/48 49/1/49 
f 48/1/48 50/1/50 51/1/51 
f 50/1/50 52/1/52 53/1/53 
f 52/1/52 54/1/54 55/1/55 
f 54/1/54 56/1/56 57/1/57 
f 56/1/56 58/1/58 59/1/59 
f 58/1/58 60/1/60 61/1/61 
f 44/1/44 62/1/62 63/1/63 
f 60/1/60 64/1/64 65/1/65 
f 64/1/64 1/1/1 66/1/66 
f 66/1/66 67/1/67 68/1/68 
f 69/1/69 70/1/70 71/1/71 
f 72/1/72 73/1/73 74/1/74 
f 13/1/13 75/1/75 76/1/76 
f 64/1/64 77/1/77 78/1/78 
f 31/1/31 79/1/79 80/1/80 
f 10/1/10 81/1/81 82/1/82 
f 49/1/49 83/1/83 84/1/84 
f 28/1/28 85/1/85 86/1/86 
f 46/1/46 63/1/63 87/1/87 
f 15/1/15 88/1/88 75/1/75 
f 33/1/33 89/1/89 79/1/79 
f 12/1/12 82/1/82 90/1/90 
f 51/1/51 91/1/91 83/1/83 
f 30/1/30 86/1/86 92/1/92 
f 48/1/48 87/1/87 93/1/93 
f 17/1/17 94/1/94 88/1/88 
f 35/1/35 95/1/95 89/1/89 
f 14/1/14 90/1/90 96/1/96 
f 53/1/53 97/1/97 91/1/91 
f 32/1/32 92/1/92 98/1/98 
f 50/1/50 93/1/93 99/1/99 
f 19/1/19 100/1/100 94/1/94 
f 37/1/37 101/1/101 95/1/95 
f 16/1/16 96/1/96 102/1/102 
f 3/1/3 103/1/103 67/1/67 
f 55/1/55 72/1/72 97/1/97 
f 34/1/34 98/1/98 104/1/104 
f 1/1/1 78/1/78 105/1/105 
f 52/1/52 99/1/99 106/1/106 
f 21/1/21 107/1/107 100/1/100 
f 39/1/39 108/1/108 101/1/101 
f 18/1/18 102/1/102 109/1/109 
f 57/1/57 110/1/110 72/1/72 
f 36/1/36 104/1/104 111/1/111 
f 5/1/5 112/1/112 103/1/103 
f 54/1/54 106/1/106 113/1/113 
f 23/1/23 114/1/114 107/1/107 
f 2/1/2 105/1/105 115/1/115 
f 41/1/41 116/1/116 108/1/108 
f 20/1/20 109/1/109 117/1/117 
f 59/1/59 118/1/118 110/1/110 
f 38/1/38 111/1/111 119/1/119 
f 7/1/7 120/1/120 112/1/112 
f 56/1/56 113/1/113 121/1/121 
f 25/1/25 122/1/122 114/1/114 
f 4/1/4 115/1/115 123/1/123 
f 43/1/43 124/1/124 116/1/116 
f 22/1/22 117/1/117 69/1/69 
f 61/1/61 125/1/125 118/1/118 
f 40/1/40 119/1/119 126/1/126 
f 9/1/9 127/1/127 120/1/120 
f 58/1/58 121/1/121 128/1/128 
f 27/1/27 129/1/129 122/1/122 
f 6/1/6 123/1/123 130/1/130 
f 45/1/45 131/1/131 124/1/124 
f 24/1/24 69/1/69 132/1/132 
f 65/1/65 68/1/68 125/1/125 
f 42/1/42 126/1/126 62/1/62 
f 11/1/11 76/1/76 127/1/127 
f 60/1/60 128/1/128 77/1/77 
f 29/1/29 80/1/80 129/1/129 
f 8/1/8 130/1/130 81/1/81 
f 47/1/47 84/1/84 131/1/131 
f 26/1/26 132/1/132 85/1/85 
f 133/1/133 134/1/134 135/1/135 
f 88/1/88 136/1/136 137/1/137 
f 80/1/80 138/1/138 139/1/139 
f 124/1/124 140/1/140 141/1/141 
f 103/1/103 142/1/142 143/1/143 
f 110/1/110 144/1/144 73/1/73 
f 94/1/94 145/1/145 136/1/136 
f 79/1/79 146/1/146 138/1/138 
f 131/1/131 147/1/147 140/1/140 
f 112/1/112 148/1/148 142/1/142 
f 118/1/118 149/1/149 144/1/144 
f 100/1/100 150/1/150 145/1/145 
f 89/1/89 151/1/151 146/1/146 
f 84/1/84 152/1/152 147/1/147 
f 120/1/120 153/1/153 148/1/148 
f 125/1/125 154/1/154 149/1/149 
f 107/1/107 155/1/155 150/1/150 
f 95/1/95 156/1/156 151/1/151 
f 83/1/83 157/1/157 152/1/152 
f 127/1/127 158/1/158 153/1/153 
f 68/1/68 159/1/159 154/1/154 
f 114/1/114 160/1/160 155/1/155 
f 101/1/101 161/1/161 156/1/156 
f 91/1/91 162/1/162 157/1/157 
f 76/1/76 163/1/163 158/1/158 
f 67/1/67 143/1/143 159/1/159 
f 122/1/122 164/1/164 160/1/160 
f 108/1/108 165/1/165 161/1/161 
f 97/1/97 74/1/74 162/1/162 
f 75/1/75 137/1/137 163/1/163 
f 129/1/129 139/1/139 164/1/164 
f 116/1/116 141/1/141 165/1/165 
f 148/1/148 166/1/166 167/1/167 
f 111/1/111 168/1/168 169/1/169 
f 99/1/99 170/1/170 171/1/171 
f 82/1/82 172/1/172 173/1/173 
f 132/1/132 71/1/71 174/1/174 
f 119/1/119 169/1/169 175/1/175 
f 78/1/78 176/1/176 177/1/177 
f 106/1/106 171/1/171 178/1/178 
f 90/1/90 173/1/173 179/1/179 
f 85/1/85 174/1/174 180/1/180 
f 126/1/126 175/1/175 181/1/181 
f 105/1/105 177/1/177 182/1/182 
f 113/1/113 178/1/178 183/1/183 
f 96/1/96 179/1/179 184/1/184 
f 86/1/86 180/1/180 133/1/133 
f 62/1/62 181/1/181 185/1/185 
f 115/1/115 182/1/182 186/1/186 
f 121/1/121 183/1/183 187/1/187 
f 102/1/102 184/1/184 188/1/188 
f 92/1/92 133/1/133 189/1/189 
f 63/1/63 185/1/185 190/1/190 
f 123/1/123 186/1/186 191/1/191 
f 128/1/128 187/1/187 192/1/192 
f 109/1/109 188/1/188 193/1/193 
f 98/1/98 189/1/189 194/1/194 
f 87/1/87 190/1/190 195/1/195 
f 130/1/130 191/1/191 196/1/196 
f 77/1/77 192/1/192 176/1/176 
f 117/1/117 193/1/193 70/1/70 
f 104/1/104 194/1/194 168/1/168 
f 93/1/93 195/1/195 170/1/170 
f 81/1/81 196/1/196 172/1/172 
f 149/1/149 197/1/197 198/1/198 
f 153/1/153 199/1/199 166/1/166 
f 189/1/189 135/1/135 200/1/200 
f 154/1/154 201/1/201 197/1/197 
f 158/1/158 202/1/202 199/1/199 
f 194/1/194 200/1/200 203/1/203 
f 159/1/159 204/1/204 201/1/201 
f 163/1/163 205/1/205 202/1/202 
f 168/1/168 203/1/203 206/1/206 
f 143/1/143 207/1/207 204/1/204 
f 137/1/137 208/1/208 205/1/205 
f 169/1/169 206/1/206 209/1/209 
f 136/1/136 210/1/210 208/1/208 
f 175/1/175 209/1/209 211/1/211 
f 145/1/145 212/1/212 210/1/210 
f 181/1/181 211/1/211 213/1/213 
f 150/1/150 214/1/214 212/1/212 
f 185/1/185 213/1/213 215/1/215 
f 155/1/155 216/1/216 214/1/214 
f 190/1/190 215/1/215 217/1/217 
f 160/1/160 218/1/218 216/1/216 
f 195/1/195 217/1/217 219/1/219 
f 164/1/164 220/1/220 218/1/218 
f 170/1/170 219/1/219 221/1/221 
f 176/1/176 222/1/222 223/1/223 
f 139/1/139 224/1/224 220/1/220 
f 171/1/171 221/1/221 225/1/225 
f 177/1/177 223/1/223 226/1/226 
f 138/1/138 227/1/227 224/1/224 
f 178/1/178 225/1/225 228/1/228 
f 182/1/182 226/1/226 229/1/229 
f 146/1/146 230/1/230 227/1/227 
f 183/1/183 228/1/228 231/1/231 
f 186/1/186 229/1/229 232/1/232 
f 151/1/151 233/1/233 230/1/230 
f 187/1/187 231/1/231 234/1/234 
f 191/1/191 232/1/232 235/1/235 
f 156/1/156 236/1/236 233/1/233 
f 192/1/192 234/1/234 222/1/222 
f 196/1/196 235/1/235 237/1/237 
f 161/1/161 238/1/238 236/1/236 
f 172/1/172 237/1/237 239/1/239 
f 165/1/165 240/1/240 238/1/238 
f 173/1/173 239/1/239 241/1/241 
f 141/1/141 242/1/242 240/1/240 
f 179/1/179 241/1/241 243/1/243 
f 140/1/140 244/1/244 242/1/242 
f 184/1/184 243/1/243 245/1/245 
f 147/1/147 246/1/246 244/1/244 
f 188/1/188 245/1/245 247/1/247 
f 152/1/152 248/1/248 246/1/246 
f 193/1/193 247/1/247 249/1/249 
f 157/1/157 250/1/250 248/1/248 
f 70/1/70 249/1/249 251/1/251 
f 162/1/162 252/1/252 250/1/250 
f 71/1/71 251/1/251 253/1/253 
f 74/1/74 254/1/254 252/1/252 
f 174/1/174 253/1/253 255/1/255 
f 73/1/73 256/1/256 254/1/254 
f 142/1/142 167/1/167 207/1/207 
f 180/1/180 255/1/255 134/1/134 
f 144/1/144 198/1/198 256/1/256 
s off
f 197/1/257 256/1/257 198/1/257 
f 232/1/258 237/1/258 235/1/258 
s 1
f 3/1/3 66/1/66 1/1/1 
f 5/1/5 3/1/3 2/1/2 
f 7/1/7 5/1/5 4/1/4 
f 9/1/9 7/1/7 6/1/6 
f 11/1/11 9/1/9 8/1/8 
f 13/1/13 11/1/11 10/1/10 
f 15/1/15 13/1/13 12/1/12 
f 17/1/17 15/1/15 14/1/14 
f 19/1/19 17/1/17 16/1/16 
f 21/1/21 19/1/19 18/1/18 
f 23/1/23 21/1/21 20/1/20 
f 25/1/25 23/1/23 22/1/22 
f 27/1/27 25/1/25 24/1/24 
f 29/1/29 27/1/27 26/1/26 
f 31/1/31 29/1/29 28/1/28 
f 33/1/33 31/1/31 30/1/30 
f 35/1/35 33/1/33 32/1/32 
f 37/1/37 35/1/35 34/1/34 
f 39/1/39 37/1/37 36/1/36 
f 41/1/41 39/1/39 38/1/38 
f 43/1/43 41/1/41 40/1/40 
f 45/1/45 43/1/43 42/1/42 
f 47/1/47 45/1/45 44/1/44 
f 49/1/49 47/1/47 46/1/46 
f 51/1/51 49/1/49 48/1/48 
f 53/1/53 51/1/51 50/1/50 
f 55/1/55 53/1/53 52/1/52 
f 57/1/57 55/1/55 54/1/54 
f 59/1/59 57/1/57 56/1/56 
f 61/1/61 59/1/59 58/1/58 
f 63/1/63 46/1/46 44/1/44 
f 65/1/65 61/1/61 60/1/60 
f 66/1/66 65/1/65 64/1/64 
f 68/1/68 65/1/65 66/1/66 
f 71/1/71 132/1/132 69/1/69 
f 74/1/74 97/1/97 72/1/72 
f 76/1/76 11/1/11 13/1/13 
f 78/1/78 1/1/1 64/1/64 
f 80/1/80 29/1/29 31/1/31 
f 82/1/82 12/1/12 10/1/10 
f 84/1/84 47/1/47 49/1/49 
f 86/1/86 30/1/30 28/1/28 
f 87/1/87 48/1/48 46/1/46 
f 75/1/75 13/1/13 15/1/15 
f 79/1/79 31/1/31 33/1/33 
f 90/1/90 14/1/14 12/1/12 
f 83/1/83 49/1/49 51/1/51 
f 92/1/92 32/1/32 30/1/30 
f 93/1/93 50/1/50 48/1/48 
f 88/1/88 15/1/15 17/1/17 
f 89/1/89 33/1/33 35/1/35 
f 96/1/96 16/1/16 14/1/14 
f 91/1/91 51/1/51 53/1/53 
f 98/1/98 34/1/34 32/1/32 
f 99/1/99 52/1/52 50/1/50 
f 94/1/94 17/1/17 19/1/19 
f 95/1/95 35/1/35 37/1/37 
f 102/1/102 18/1/18 16/1/16 
f 67/1/67 66/1/66 3/1/3 
f 97/1/97 53/1/53 55/1/55 
f 104/1/104 36/1/36 34/1/34 
f 105/1/105 2/1/2 1/1/1 
f 106/1/106 54/1/54 52/1/52 
f 100/1/100 19/1/19 21/1/21 
f 101/1/101 37/1/37 39/1/39 
f 109/1/109 20/1/20 18/1/18 
f 72/1/72 55/1/55 57/1/57 
f 111/1/111 38/1/38 36/1/36 
f 103/1/103 3/1/3 5/1/5 
f 113/1/113 56/1/56 54/1/54 
f 107/1/107 21/1/21 23/1/23 
f 115/1/115 4/1/4 2/1/2 
f 108/1/108 39/1/39 41/1/41 
f 117/1/117 22/1/22 20/1/20 
f 110/1/110 57/1/57 59/1/59 
f 119/1/119 40/1/40 38/1/38 
f 112/1/112 5/1/5 7/1/7 
f 121/1/121 58/1/58 56/1/56 
f 114/1/114 23/1/23 25/1/25 
f 123/1/123 6/1/6 4/1/4 
f 116/1/116 41/1/41 43/1/43 
f 69/1/69 24/1/24 22/1/22 
f 118/1/118 59/1/59 61/1/61 
f 126/1/126 42/1/42 40/1/40 
f 120/1/120 7/1/7 9/1/9 
f 128/1/128 60/1/60 58/1/58 
f 122/1/122 25/1/25 27/1/27 
f 130/1/130 8/1/8 6/1/6 
f 124/1/124 43/1/43 45/1/45 
f 132/1/132 26/1/26 24/1/24 
f 125/1/125 61/1/61 65/1/65 
f 62/1/62 44/1/44 42/1/42 
f 127/1/127 9/1/9 11/1/11 
f 77/1/77 64/1/64 60/1/60 
f 129/1/129 27/1/27 29/1/29 
f 81/1/81 10/1/10 8/1/8 
f 131/1/131 45/1/45 47/1/47 
f 85/1/85 28/1/28 26/1/26 
f 135/1/135 189/1/189 133/1/133 
f 137/1/137 75/1/75 88/1/88 
f 139/1/139 129/1/129 80/1/80 
f 141/1/141 116/1/116 124/1/124 
f 143/1/143 67/1/67 103/1/103 
f 73/1/73 72/1/72 110/1/110 
f 136/1/136 88/1/88 94/1/94 
f 138/1/138 80/1/80 79/1/79 
f 140/1/140 124/1/124 131/1/131 
f 142/1/142 103/1/103 112/1/112 
f 144/1/144 110/1/110 118/1/118 
f 145/1/145 94/1/94 100/1/100 
f 146/1/146 79/1/79 89/1/89 
f 147/1/147 131/1/131 84/1/84 
f 148/1/148 112/1/112 120/1/120 
f 149/1/149 118/1/118 125/1/125 
f 150/1/150 100/1/100 107/1/107 
f 151/1/151 89/1/89 95/1/95 
f 152/1/152 84/1/84 83/1/83 
f 153/1/153 120/1/120 127/1/127 
f 154/1/154 125/1/125 68/1/68 
f 155/1/155 107/1/107 114/1/114 
f 156/1/156 95/1/95 101/1/101 
f 157/1/157 83/1/83 91/1/91 
f 158/1/158 127/1/127 76/1/76 
f 159/1/159 68/1/68 67/1/67 
f 160/1/160 114/1/114 122/1/122 
f 161/1/161 101/1/101 108/1/108 
f 162/1/162 91/1/91 97/1/97 
f 163/1/163 76/1/76 75/1/75 
f 164/1/164 122/1/122 129/1/129 
f 165/1/165 108/1/108 116/1/116 
f 167/1/167 142/1/142 148/1/148 
f 169/1/169 119/1/119 111/1/111 
f 171/1/171 106/1/106 99/1/99 
f 173/1/173 90/1/90 82/1/82 
f 174/1/174 85/1/85 132/1/132 
f 175/1/175 126/1/126 119/1/119 
f 177/1/177 105/1/105 78/1/78 
f 178/1/178 113/1/113 106/1/106 
f 179/1/179 96/1/96 90/1/90 
f 180/1/180 86/1/86 85/1/85 
f 181/1/181 62/1/62 126/1/126 
f 182/1/182 115/1/115 105/1/105 
f 183/1/183 121/1/121 113/1/113 
f 184/1/184 102/1/102 96/1/96 
f 133/1/133 92/1/92 86/1/86 
f 185/1/185 63/1/63 62/1/62 
f 186/1/186 123/1/123 115/1/115 
f 187/1/187 128/1/128 121/1/121 
f 188/1/188 109/1/109 102/1/102 
f 189/1/189 98/1/98 92/1/92 
f 190/1/190 87/1/87 63/1/63 
f 191/1/191 130/1/130 123/1/123 
f 192/1/192 77/1/77 128/1/128 
f 193/1/193 117/1/117 109/1/109 
f 194/1/194 104/1/104 98/1/98 
f 195/1/195 93/1/93 87/1/87 
f 196/1/196 81/1/81 130/1/130 
f 176/1/176 78/1/78 77/1/77 
f 70/1/70 69/1/69 117/1/117 
f 168/1/168 111/1/111 104/1/104 
f 170/1/170 99/1/99 93/1/93 
f 172/1/172 82/1/82 81/1/81 
f 198/1/198 144/1/144 149/1/149 
f 166/1/166 148/1/148 153/1/153 
f 200/1/200 194/1/194 189/1/189 
f 197/1/197 149/1/149 154/1/154 
f 199/1/199 153/1/153 158/1/158 
f 203/1/203 168/1/168 194/1/194 
f 201/1/201 154/1/154 159/1/159 
f 202/1/202 158/1/158 163/1/163 
f 206/1/206 169/1/169 168/1/168 
f 204/1/204 159/1/159 143/1/143 
f 205/1/205 163/1/163 137/1/137 
f 209/1/209 175/1/175 169/1/169 
f 208/1/208 137/1/137 136/1/136 
f 211/1/211 181/1/181 175/1/175 
f 210/1/210 136/1/136 145/1/145 
f 213/1/213 185/1/185 181/1/181 
f 212/1/212 145/1/145 150/1/150 
f 215/1/215 190/1/190 185/1/185 
f 214/1/214 150/1/150 155/1/155 
f 217/1/217 195/1/195 190/1/190 
f 216/1/216 155/1/155 160/1/160 
f 219/1/219 170/1/170 195/1/195 
f 218/1/218 160/1/160 164/1/164 
f 221/1/221 171/1/171 170/1/170 
f 223/1/223 177/1/177 176/1/176 
f 220/1/220 164/1/164 139/1/139 
f 225/1/225 178/1/178 171/1/171 
f 226/1/226 182/1/182 177/1/177 
f 224/1/224 139/1/139 138/1/138 
f 228/1/228 183/1/183 178/1/178 
f 229/1/229 186/1/186 182/1/182 
f 227/1/227 138/1/138 146/1/146 
f 231/1/231 187/1/187 183/1/183 
f 232/1/232 191/1/191 186/1/186 
f 230/1/230 146/1/146 151/1/151 
f 234/1/234 192/1/192 187/1/187 
f 235/1/235 196/1/196 191/1/191 
f 233/1/233 151/1/151 156/1/156 
f 222/1/222 176/1/176 192/1/192 
f 237/1/237 172/1/172 196/1/196 
f 236/1/236 156/1/156 161/1/161 
f 239/1/239 173/1/173 172/1/172 
f 238/1/238 161/1/161 165/1/165 
f 241/1/241 179/1/179 173/1/173 
f 240/1/240 165/1/165 141/1/141 
f 243/1/243 184/1/184 179/1/179 
f 242/1/242 141/1/141 140/1/140 
f 245/1/245 188/1/188 184/1/184 
f 244/1/244 140/1/140 147/1/147 
f 247/1/247 193/1/193 188/1/188 
f 246/1/246 147/1/147 152/1/152 
f 249/1/249 70/1/70 193/1/193 
f 248/1/248 152/1/152 157/1/157 
f 251/1/251 71/1/71 70/1/70 
f 250/1/250 157/1/157 162/1/162 
f 253/1/253 174/1/174 71/1/71 
f 252/1/252 162/1/162 74/1/74 
f 255/1/255 180/1/180 174/1/174 
f 254/1/254 74/1/74 73/1/73 
f 207/1/207 143/1/143 142/1/142 
f 134/1/134 133/1/133 180/1/180 
f 256/1/256 73/1/73 144/1/144 
s off
f 197/1/257 201/1/257 204/1/257 
f 204/1/257 207/1/257 167/1/257 
f 167/1/257 166/1/257 199/1/257 
f 204/1/257 167/1/257 199/1/257 
f 199/1/257 202/1/257 205/1/257 
f 205/1/257 208/1/257 210/1/257 
f 199/1/257 205/1/257 210/1/257 
f 204/1/257 199/1/257 210/1/257 
f 210/1/257 212/1/257 214/1/257 
f 214/1/257 216/1/257 218/1/257 
f 210/1/257 214/1/257 218/1/257 
f 218/1/257 220/1/257 224/1/257 
f 224/1/257 227/1/257 230/1/257 
f 218/1/257 224/1/257 230/1/257 
f 210/1/257 218/1/257 230/1/257 
f 204/1/257 210/1/257 230/1/257 
f 230/1/257 233/1/257 257/1/257 
f 257/1/257 238/1/257 240/1/257 
f 230/1/257 257/1/257 240/1/257 
f 240/1/257 242/1/257 244/1/257 
f 244/1/257 246/1/257 248/1/257 
f 240/1/257 244/1/257 248/1/257 
f 230/1/257 240/1/257 248/1/257 
f 204/1/257 230/1/257 248/1/257 
f 248/1/257 250/1/257 252/1/257 
f 252/1/257 254/1/257 256/1/257 
f 248/1/257 252/1/257 256/1/257 
f 204/1/257 248/1/257 256/1/257 
f 197/1/257 204/1/257 256/1/257 
f 232/1/258 229/1/258 226/1/258 
f 226/1/258 223/1/258 222/1/258 
f 222/1/258 234/1/258 231/1/258 
f 226/1/258 222/1/258 231/1/258 
f 231/1/258 228/1/258 225/1/258 
f 225/1/258 221/1/258 219/1/258 
f 231/1/258 225/1/258 219/1/258 
f 226/1/258 231/1/258 219/1/258 
f 219/1/258 217/1/258 215/1/258 
f 215/1/258 213/1/258 211/1/258 
f 219/1/258 215/1/258 211/1/258 
f 211/1/258 209/1/258 206/1/258 
f 206/1/258 203/1/258 200/1/258 
f 211/1/258 206/1/258 200/1/258 
f 219/1/258 211/1/258 200/1/258 
f 226/1/258 219/1/258 200/1/258 
f 200/1/258 258/1/258 134/1/258 
f 134/1/258 255/1/258 253/1/258 
f 200/1/258 134/1/258 253/1/258 
f 253/1/258 251/1/258 249/1/258 
f 249/1/258 247/1/258 245/1/258 
f 253/1/258 249/1/258 245/1/258 
f 200/1/258 253/1/258 245/1/258 
f 226/1/258 200/1/258 245/1/258 
f 245/1/258 243/1/258 241/1/258 
f 241/1/258 239/1/258 237/1/258 
f 245/1/258 241/1/258 237/1/258 
f 226/1/258 245/1/258 237/1/258 
f 232/1/258 226/1/258 237/1/258 
# 0 polygons - 508 triangles

