# 3ds Max Wavefront OBJ Exporter v0.99 - (c)2007 guruware
# File Created: 17.03.2025 18:00:29

mtllib carro_base.mtl

#
# object Object002
#

v  0.4492 0.3674 -2.4703
v  -0.0350 0.2937 -2.4680
v  -0.0350 0.3824 -2.4703
v  -1.0038 0.3174 -0.7203
v  -0.9893 0.3431 -0.6803
v  -0.7277 0.8156 -0.7928
v  -0.5194 0.3674 -1.9578
v  -1.0038 0.3174 -1.8828
v  -0.9554 0.3316 -1.8741
v  0.6431 0.8174 -1.5340
v  0.9337 0.3174 -1.8828
v  0.8853 0.3316 -1.8741
v  0.6431 0.8424 -0.8453
v  0.9337 0.3174 -0.7203
v  0.9192 0.3431 -0.7728
v  -1.0350 0.2424 1.6797
v  -1.0350 -0.0201 1.7797
v  -1.0048 0.2674 1.7509
v  -1.0038 0.3174 0.4634
v  -1.0350 0.2924 -0.7203
v  0.6431 0.8174 -0.1565
v  0.9337 0.3174 0.4634
v  0.9192 0.3431 0.3660
v  -0.7132 0.8424 -0.8453
v  -0.7277 0.8156 -0.8853
v  -0.9893 0.3431 -0.7728
v  -0.0350 0.3824 -1.9828
v  -0.4952 0.3791 -1.9491
v  0.9650 0.2924 -1.3047
v  0.9650 0.2924 -0.7203
v  0.9650 -0.0201 -0.7203
v  0.9650 0.2424 1.6797
v  0.9650 -0.0201 1.7797
v  0.9650 0.0799 1.1465
v  -1.0350 0.2643 0.6297
v  -1.0350 -0.0201 -0.7203
v  -1.0350 0.2924 -2.4570
v  -1.0350 -0.0201 -2.5203
v  -1.0350 0.0799 -1.8700
v  -0.9958 -0.0027 1.7573
v  0.9349 0.2674 1.7509
v  -0.5350 -0.0201 1.8797
v  -0.5708 -0.0027 1.8423
v  -0.9350 -0.0201 -2.5203
v  -1.0350 -0.0721 -2.5203
v  0.9650 -0.0721 -0.7203
v  0.9650 0.0799 -1.3675
v  0.9650 0.0799 0.7363
v  -0.5199 0.3174 1.8009
v  -0.5580 0.2492 1.7573
v  0.4499 0.3174 1.8009
v  0.4880 0.2492 1.7573
v  0.9258 -0.0027 1.7573
v  0.5008 -0.0027 1.8423
v  -0.9701 0.2417 1.7148
v  0.9002 0.2417 1.7148
v  0.4650 -0.0201 1.8797
v  0.9650 0.2924 -1.9328
v  0.9650 0.2924 -2.4570
v  0.9334 0.3174 -2.4703
v  -1.0027 0.3174 -2.4703
v  -0.7132 0.8174 -0.1565
v  -0.7277 0.7931 -0.1729
v  -0.9893 0.3431 0.3660
v  -0.7132 0.8174 -1.5340
v  -0.9893 0.3431 -1.8191
v  -0.9893 0.3431 -1.5575
v  0.6576 0.7931 -0.1729
v  0.6576 0.8156 -0.7928
v  0.9192 0.3431 -0.6803
v  0.6576 0.7931 -1.5052
v  0.9192 0.3431 -1.8191
v  0.6576 0.8156 -0.8853
v  0.9650 -0.0721 -2.5203
v  0.8650 -0.0201 -2.5203
v  0.9650 -0.0201 -2.5203
v  -1.0350 -0.0721 -0.7203
v  -1.0350 0.0799 0.7363
v  -1.0350 0.2549 1.0797
v  -1.0350 0.0799 1.1465
v  0.9650 0.2549 1.0797
v  0.9650 0.2643 0.6297
v  -1.0350 0.2924 -1.9328
v  -1.0350 0.0799 -1.3675
v  0.9650 0.0799 -1.8700
v  -1.0350 0.2924 -1.3047
v  0.4493 0.3674 -1.9578
v  0.4251 0.3791 -1.9491
v  -0.6793 0.8066 -1.5428
v  -0.0350 0.3933 -1.9741
v  -0.0350 -0.0201 -2.5203
v  -1.0350 -0.2305 -2.5203
v  -1.0350 -0.2305 -2.0328
v  0.3040 0.8674 -1.6090
v  -0.0350 0.8824 -1.6340
v  -0.0350 0.9074 -0.8453
v  -0.0350 0.8824 -0.1065
v  -0.3741 0.8674 -0.1065
v  -0.3572 0.8539 -0.0916
v  -0.6793 0.8064 -0.1416
v  -0.5189 0.3674 -2.4703
v  -0.3741 0.8924 -0.8453
v  0.3040 0.8924 -0.8453
v  -0.0350 0.8689 -0.0916
v  0.2871 0.8539 -0.0916
v  0.6092 0.8064 -0.1416
v  0.8853 0.3314 0.4272
v  0.2871 0.8541 -1.6178
v  -0.9554 0.3314 0.4272
v  -0.0350 0.3824 0.5134
v  0.4493 0.3674 0.5134
v  0.4251 0.3789 0.4772
v  -0.0350 0.3939 0.4772
v  -0.4952 0.3789 0.4772
v  -0.5194 0.3674 0.5134
v  0.3040 0.8674 -0.1065
v  -0.3741 0.8674 -1.6090
v  0.6092 0.8066 -1.5428
v  -0.3572 0.8541 -1.6178
v  -0.0350 0.8683 -1.6428
v  -0.0350 -0.0201 1.8947
v  0.4499 0.3174 1.7797
v  -0.5199 0.3174 1.7797
v  -0.9893 0.3431 -1.3613
v  -0.9880 0.3454 0.3591
v  -0.9880 0.3454 -0.6767
v  0.9146 0.3511 -0.6677
v  0.9146 0.3511 0.3421
v  -0.9880 0.3454 -0.7776
v  0.9146 0.3511 -1.7992
v  0.9146 0.3511 -0.7893
v  -0.6471 0.7963 -1.5510
v  -0.9093 0.3450 -1.8658
v  0.8392 0.3450 -1.8658
v  0.4021 0.3902 -1.9408
v  -0.0350 0.4037 -1.9658
v  -0.4722 0.3902 -1.9408
v  -0.3411 0.8413 -0.0784
v  0.4021 0.3900 0.4620
v  0.8392 0.3449 0.4145
v  -0.4722 0.3900 0.4620
v  -0.9093 0.3449 0.4145
v  -0.0350 0.8550 -1.6510
v  -0.3411 0.8414 -1.6260
v  0.2710 0.8414 -1.6260
v  0.5770 0.7963 -1.5510
v  -0.6471 0.7961 -0.1259
v  0.2710 0.8413 -0.0784
v  0.5770 0.7961 -0.1259
v  -0.0350 0.8555 -0.0784
v  -0.0350 0.4043 0.4620
v  -0.7290 0.8132 -0.7880
v  -0.7277 0.7931 -1.5052
v  -0.7277 0.7987 -1.3502
v  -0.7290 0.8132 -0.8889
v  -0.9880 0.3454 -1.8133
v  -0.7290 0.7909 -0.1744
v  0.6622 0.8072 -0.7763
v  0.6622 0.7854 -1.4962
v  0.6622 0.7854 -0.1780
v  -0.7277 0.8029 -1.2340
v  0.6622 0.8072 -0.8978
v  -0.7290 0.8006 -1.2341
v  -0.7290 0.7909 -1.5026
v  -1.0350 -0.2305 0.5313
v  -1.0850 -0.2555 0.5313
v  -1.0850 0.0549 0.7363
v  -1.0850 0.0549 1.1465
v  0.9650 -0.2305 -1.2047
v  1.0150 -0.2555 -1.2047
v  1.0150 0.0549 -1.3675
v  0.9650 -0.2305 -2.0328
v  1.0150 0.0549 -1.8700
v  0.9650 -0.2305 0.5313
v  1.0150 0.0549 0.7363
v  1.0150 0.0549 1.1465
v  -1.0850 -0.2322 0.5928
v  -1.0850 0.0317 0.7671
v  -1.0850 0.0317 1.1157
v  -1.0100 -0.3826 0.5313
v  1.0150 0.0317 0.7671
v  1.0150 -0.2322 0.5928
v  1.0150 0.0317 1.1157
v  1.0150 -0.2555 0.5313
v  0.9400 -0.3826 0.5313
v  1.0150 0.0394 -1.8323
v  1.0150 -0.2399 -1.9707
v  1.0150 -0.2399 -1.2668
v  1.0150 0.0394 -1.4052
v  1.0150 -0.2555 -2.0328
v  0.9400 -0.3826 -2.0328
v  0.9400 -0.3826 -1.2047
v  -1.0850 -0.2555 -1.2047
v  -1.0850 -0.2322 -1.2668
v  -1.0100 -0.3826 -1.2047
v  -1.0100 -0.3826 -2.5203
v  -1.0100 -0.3826 -2.0328
v  0.9650 -0.2805 1.7797
v  0.9400 -0.3826 1.7797
v  0.9400 -0.3826 1.3516
v  0.9650 -0.2305 -0.7203
v  0.9400 -0.3826 -0.7203
v  -1.0350 -0.2305 -0.7203
v  -1.0100 -0.3826 -0.7203
v  -0.0350 -0.0357 2.0297
v  0.4150 -0.0357 2.0147
v  0.9100 -0.3258 -2.6203
v  0.9650 -0.2305 -2.5203
v  0.9400 -0.3826 -2.5203
v  -0.0350 -0.3258 -2.6203
v  -0.0350 -0.3826 -2.5203
v  -0.9125 -0.3826 -2.5203
v  0.8650 -0.0357 1.9147
v  -0.0350 -0.3826 1.8797
v  0.4525 -0.3826 1.8797
v  0.4150 -0.3169 2.0147
v  0.8425 -0.3826 -2.5203
v  -0.5225 -0.3826 1.8797
v  -0.4851 -0.3169 2.0147
v  -0.9351 -0.3169 1.9147
v  -0.9800 -0.3258 -2.6203
v  0.8650 -0.2701 1.9297
v  0.4150 -0.2701 2.0297
v  -0.0350 -0.2701 2.0447
v  -0.0350 -0.3169 2.0297
v  -0.9351 -0.2701 1.9297
v  -0.4851 -0.2701 2.0297
v  0.8650 -0.3169 1.9147
v  0.9650 -0.0721 1.7797
v  -0.9351 -0.0357 1.9147
v  -1.0350 -0.2805 1.7797
v  -1.0100 -0.3826 1.7797
v  -0.4851 -0.0357 2.0147
v  -1.0350 -0.0721 1.7797
v  -0.9351 -0.0826 1.9297
v  0.8650 -0.0826 1.9297
v  -0.4851 -0.0826 2.0297
v  -0.0350 -0.0826 2.0447
v  0.4150 -0.0826 2.0297
v  -0.9800 -0.0519 -2.6203
v  0.9100 -0.0519 -2.6203
v  -0.0350 -0.0519 -2.6203
v  -1.0350 -0.2305 1.3516
v  -1.0100 -0.3826 1.3516
v  -1.0350 -0.2305 -1.2047
v  0.9650 -0.2305 1.3516
v  -1.0850 0.0549 -1.3675
v  -1.0850 0.0549 -1.8700
v  1.0150 -0.2555 1.3516
v  -1.0850 -0.2555 -2.0328
v  -1.0850 -0.2322 1.2901
v  -1.0850 -0.2555 1.3516
v  1.0150 -0.2322 1.2901
v  -1.0850 -0.2322 -1.9707
v  -1.0850 0.0317 -1.8323
v  -1.0850 0.0317 -1.4052
v  -0.8150 -0.3826 -2.0328
v  -0.5225 -0.3826 -0.7203
v  -0.0350 -0.3826 -0.7203
v  -0.0350 -0.3826 0.6297
v  0.4525 -0.3826 -0.7203
v  0.4525 -0.3826 0.6297
v  0.7450 -0.3826 -2.0328
v  -0.5225 -0.3826 1.2297
v  -0.0350 -0.3826 1.2297
v  0.4525 -0.3826 1.2297
v  -0.5225 -0.3826 0.6297
v  -0.0350 -0.3826 -2.0328
v  0.6718 -0.3826 -1.2047
v  -0.7419 -0.3826 -1.2047
v  -0.0350 -0.3826 -1.2047
v  -0.0350 0.3174 1.7947
# 272 vertices

vn 0.0009 -0.1174 -0.9931
vn -0.8742 0.4855 0.0066
vn -0.1696 0.8332 -0.5263
vn 0.0233 0.5810 -0.8136
vn 0.8755 0.4831 -0.0065
vn -0.8784 0.1701 0.4466
vn -0.7707 0.6371 0.0129
vn 0.8610 0.5086 0.0069
vn -0.8755 0.4831 -0.0065
vn -0.0602 0.6503 -0.7573
vn 1.0000 -0.0000 0.0000
vn -1.0000 0.0000 0.0000
vn 0.4572 0.1054 0.8831
vn 0.8795 0.1694 0.4447
vn -0.0990 0.8631 0.4952
vn 0.0000 0.0000 -1.0000
vn -0.7057 0.2425 0.6657
vn 0.0723 -0.3648 0.9283
vn 0.0990 0.8631 0.4952
vn -0.0723 -0.3647 0.9283
vn -0.4572 0.1057 0.8831
vn 0.7056 0.2423 0.6659
vn 0.6247 0.7809 0.0000
vn 0.6209 0.7839 -0.0003
vn 0.7711 0.6366 0.0129
vn -0.6225 0.7826 -0.0002
vn -0.8641 0.5029 0.0183
vn -0.8610 0.5086 0.0069
vn -0.8699 0.4933 0.0000
vn -0.8625 0.5061 -0.0068
vn 0.8641 0.5029 0.0183
vn 0.8742 0.4855 0.0066
vn 0.8699 0.4933 0.0000
vn 0.8625 0.5061 -0.0068
vn 0.8680 0.4962 -0.0180
vn -0.8680 0.4962 -0.0180
vn 0.1696 0.8332 -0.5263
vn -0.0233 0.5810 -0.8136
vn 0.0602 0.6503 -0.7573
vn -0.0009 -0.1174 -0.9931
vn -0.0055 0.1814 -0.9834
vn 0.0055 0.1814 -0.9834
vn 0.1863 0.7699 -0.6103
vn 0.0000 0.8505 -0.5260
vn 0.0000 1.0000 0.0008
vn 0.0000 0.9260 0.3776
vn -0.1386 0.8799 0.4545
vn -0.1213 0.6496 0.7505
vn -0.4799 0.8342 0.2718
vn -0.1246 0.6765 0.7258
vn 0.0515 0.6719 -0.7388
vn 0.0000 0.6724 -0.7401
vn 0.0000 0.9124 -0.4093
vn -0.0515 0.6719 -0.7389
vn -0.1147 0.9493 -0.2927
vn -0.0969 0.9953 0.0005
vn -0.5635 0.8261 -0.0005
vn 0.0969 0.9953 0.0005
vn 0.4799 0.8342 0.2718
vn 0.5635 0.8261 -0.0005
vn 0.2703 0.6466 -0.7133
vn 0.1147 0.9493 -0.2927
vn 0.0000 0.7179 0.6961
vn 0.1213 0.6496 0.7505
vn -0.2707 0.6449 -0.7147
vn -0.5070 0.8505 -0.1399
vn 0.1246 0.6765 0.7258
vn 0.0869 0.8406 0.5346
vn 0.1718 0.3354 -0.9263
vn -0.5576 0.8190 0.1351
vn -0.0869 0.8406 0.5346
vn 0.0000 0.9416 0.3368
vn 0.0902 0.9630 0.2539
vn 0.0823 0.8532 0.5150
vn 0.0000 0.8155 0.5787
vn -0.0823 0.8532 0.5150
vn 0.5579 0.8188 0.1351
vn -0.0902 0.9630 0.2539
vn 0.1386 0.8799 0.4545
vn -0.1863 0.7699 -0.6103
vn -0.4685 0.7982 -0.3787
vn 0.4685 0.7982 -0.3787
vn 0.1376 0.3895 -0.9107
vn -0.1718 0.3354 -0.9263
vn -0.1376 0.3895 -0.9107
vn 0.0000 0.4963 -0.8681
vn 0.0000 0.2847 0.9586
vn 0.0292 0.2846 0.9582
vn -0.0292 0.2846 0.9582
vn 0.0000 0.0000 1.0000
vn -0.1731 0.8376 -0.5181
vn 0.1731 0.8376 -0.5181
vn 0.0623 0.6515 -0.7560
vn -0.0623 0.6515 -0.7560
vn -0.0872 0.7266 0.6815
vn 0.0806 0.8140 0.5752
vn 0.1154 0.8338 0.5399
vn -0.0806 0.8140 0.5752
vn -0.1154 0.8338 0.5399
vn 0.0000 0.5384 -0.8427
vn -0.1377 0.5108 -0.8486
vn 0.1377 0.5108 -0.8486
vn 0.1943 0.4245 -0.8843
vn -0.1943 0.4245 -0.8843
vn -0.1561 0.7011 0.6958
vn 0.0872 0.7266 0.6815
vn 0.1561 0.7011 0.6958
vn 0.0000 0.7357 0.6773
vn 0.0000 0.7990 0.6013
vn -0.8642 0.5029 0.0183
vn -0.8609 0.5087 0.0069
vn 0.8609 0.5087 0.0069
vn -0.8707 0.4918 0.0040
vn -0.8658 0.5004 0.0038
vn -0.8647 0.5022 0.0105
vn 0.8707 0.4918 0.0040
vn 0.8686 0.4953 0.0115
vn 0.8647 0.5022 0.0105
vn -0.8668 0.4986 -0.0038
vn -0.8686 0.4953 -0.0123
vn -0.8669 0.4984 -0.0109
vn 0.8718 0.4898 -0.0038
vn 0.8668 0.4986 -0.0038
vn 0.8669 0.4984 -0.0109
vn 0.0000 0.6171 -0.7869
vn -0.1231 0.6500 -0.7499
vn -0.1294 0.7164 -0.6856
vn 0.1231 0.6500 -0.7499
vn -0.2657 0.5314 -0.8044
vn -0.4472 0.8944 0.0000
vn 0.2262 0.4524 0.8626
vn 0.2262 0.4524 -0.8626
vn 0.4472 0.8944 0.0000
vn 0.2657 0.5314 -0.8044
vn -0.8457 -0.4991 0.1889
vn 0.8457 -0.4991 0.1889
vn 0.8543 -0.5042 0.1260
vn 0.8543 -0.5042 -0.1260
vn -0.8460 -0.4993 -0.1871
vn -0.9712 -0.0625 -0.2298
vn -0.6153 -0.7471 -0.2514
vn -0.4592 -0.8852 -0.0749
vn 0.9540 -0.1046 0.2808
vn 0.6271 -0.7330 0.2635
vn 0.4524 -0.8891 0.0699
vn 0.9967 -0.0814 0.0000
vn 0.6472 -0.7623 0.0000
vn 0.4606 -0.8840 0.0798
vn -0.9967 -0.0814 0.0000
vn -0.6472 -0.7623 0.0000
vn -0.4588 -0.8854 -0.0750
vn 0.0000 0.9933 0.1156
vn 0.0000 0.7666 0.6421
vn 0.0818 0.7543 0.6514
vn 0.4459 -0.4201 -0.7903
vn 0.9712 -0.0625 -0.2298
vn 0.6153 -0.7471 -0.2514
vn 0.0000 -0.5031 -0.8642
vn 0.0000 -0.9669 -0.2553
vn 0.1995 0.9232 0.3284
vn 0.4230 0.6620 0.6187
vn 0.0000 -0.9767 0.2145
vn 0.0342 -0.9689 0.2449
vn 0.0907 -0.6414 0.7618
vn -0.0342 -0.9689 0.2449
vn -0.0907 -0.6414 0.7618
vn -0.4520 -0.5446 0.7065
vn -0.4459 -0.4201 -0.7903
vn 0.5444 -0.1299 0.8287
vn 0.1231 -0.1518 0.9807
vn 0.0000 -0.1537 0.9881
vn 0.0000 -0.6582 0.7528
vn -0.5444 -0.1299 0.8287
vn -0.1231 -0.1518 0.9807
vn 0.4520 -0.5446 0.7065
vn 0.9546 0.0238 0.2968
vn 0.7952 0.3543 0.4920
vn -0.1995 0.9232 0.3284
vn -0.7953 0.3542 0.4920
vn -0.4230 0.6620 0.6187
vn -0.9540 -0.1046 0.2808
vn -0.6271 -0.7330 0.2635
vn -0.0818 0.7543 0.6514
vn -0.9546 0.0238 0.2968
vn -0.5429 0.1063 0.8330
vn 0.5429 0.1063 0.8330
vn -0.1231 0.1518 0.9807
vn 0.0000 0.1537 0.9881
vn 0.1231 0.1518 0.9807
vn -0.4515 0.5372 -0.7124
vn 0.0935 0.6220 -0.7774
vn 0.4515 0.5372 -0.7124
vn 0.0000 0.5900 -0.8074
vn -0.0935 0.6220 -0.7774
vn 0.0000 0.6611 -0.7503
vn 0.9189 0.1649 -0.3584
vn -0.9189 0.1649 -0.3584
vn -0.8218 0.1474 0.5503
vn -0.4524 -0.8891 0.0699
vn 0.8201 0.1520 -0.5517
vn 0.4588 -0.8854 -0.0750
vn -0.9163 0.3625 0.1702
vn 0.7994 0.1263 -0.5873
vn 0.4606 -0.8840 -0.0798
vn -0.7994 0.1263 0.5873
vn -0.4592 -0.8852 0.0749
vn 0.8218 0.1474 0.5503
vn -0.9223 0.3429 0.1782
vn -0.7456 0.5352 0.3970
vn -0.9223 0.3429 -0.1782
vn -0.7456 0.5352 -0.3970
vn 0.7660 -0.0929 0.6361
vn 0.7580 0.5485 0.3528
vn -0.7580 0.5485 0.3528
vn -0.7994 0.1263 -0.5873
vn -0.7621 -0.1214 -0.6359
vn -0.9894 -0.1360 -0.0515
vn -0.7660 -0.0929 -0.6361
vn -0.8201 0.1520 -0.5517
vn -0.7660 -0.0929 0.6361
vn 0.9894 -0.1360 -0.0515
vn 0.9163 0.3625 0.1702
vn 0.7660 -0.0929 -0.6361
vn 0.7510 -0.1062 -0.6517
vn 0.7510 -0.1062 0.6517
vn 0.7994 0.1263 0.5873
vn -0.9887 -0.1403 0.0526
vn -0.9887 -0.1403 -0.0526
vn -0.7621 -0.1214 0.6359
vn 0.1478 0.2568 0.9551
vn -0.1478 0.2569 0.9551
vn 0.0000 -1.0000 0.0000
vn 0.5082 0.8498 -0.1397
vn -0.8686 0.4953 0.0115
vn 0.8658 0.5004 0.0038
vn -0.8718 0.4898 -0.0038
vn -0.8708 0.4915 -0.0112
vn 0.8708 0.4915 -0.0112
vn 0.1294 0.7164 -0.6856
# 239 vertex normals

vt 0.0000 0.0000 0.0000
# 1 texture coords

o Object002
g Object002
usemtl wire_177028149
s off
f 1/1/1 2/1/1 3/1/1 
f 4/1/2 5/1/2 6/1/2 
f 7/1/3 8/1/3 9/1/3 
f 10/1/4 11/1/4 12/1/4 
f 13/1/5 14/1/5 15/1/5 
f 16/1/6 17/1/6 18/1/6 
f 19/1/7 20/1/7 18/1/7 
f 21/1/8 22/1/8 23/1/8 
f 24/1/9 25/1/9 26/1/9 
f 27/1/10 7/1/10 28/1/10 
f 29/1/11 30/1/11 31/1/11 
f 32/1/11 33/1/11 34/1/11 
f 35/1/12 20/1/12 36/1/12 
f 37/1/12 38/1/12 39/1/12 
f 18/1/13 17/1/13 40/1/13 
f 41/1/14 33/1/14 32/1/14 
f 17/1/15 42/1/15 43/1/15 
f 38/1/16 44/1/16 45/1/16 
f 46/1/11 47/1/11 31/1/11 
f 48/1/11 46/1/11 31/1/11 
f 42/1/17 49/1/17 50/1/17 
f 41/1/18 51/1/18 52/1/18 
f 33/1/19 53/1/19 54/1/19 
f 18/1/20 55/1/20 50/1/20 
f 41/1/21 56/1/21 53/1/21 
f 57/1/22 54/1/22 52/1/22 
f 58/1/23 11/1/23 29/1/23 
f 11/1/24 59/1/24 60/1/24 
f 41/1/25 14/1/25 22/1/25 
f 20/1/26 61/1/26 37/1/26 
f 62/1/27 24/1/27 6/1/27 
f 62/1/28 63/1/28 64/1/28 
f 4/1/29 19/1/29 64/1/29 
f 65/1/30 8/1/30 66/1/30 
f 8/1/29 67/1/29 66/1/29 
f 21/1/31 68/1/31 69/1/31 
f 14/1/32 13/1/32 69/1/32 
f 14/1/33 70/1/33 23/1/33 
f 10/1/34 71/1/34 72/1/34 
f 10/1/35 13/1/35 73/1/35 
f 74/1/16 75/1/16 76/1/16 
f 77/1/12 78/1/12 36/1/12 
f 16/1/12 79/1/12 80/1/12 
f 81/1/11 34/1/11 48/1/11 
f 82/1/11 48/1/11 31/1/11 
f 79/1/12 35/1/12 78/1/12 
f 83/1/12 39/1/12 84/1/12 
f 59/1/11 58/1/11 85/1/11 
f 65/1/36 25/1/36 24/1/36 
f 86/1/12 84/1/12 36/1/12 
f 14/1/33 11/1/33 72/1/33 
f 29/1/11 47/1/11 85/1/11 
f 87/1/37 88/1/37 12/1/37 
f 65/1/38 89/1/38 9/1/38 
f 27/1/39 90/1/39 88/1/39 
f 37/1/40 3/1/40 2/1/40 
f 37/1/41 44/1/41 38/1/41 
f 59/1/42 91/1/42 2/1/42 
f 84/1/12 77/1/12 36/1/12 
f 85/1/11 74/1/11 76/1/11 
f 39/1/12 92/1/12 93/1/12 
s 1
f 94/1/43 95/1/44 96/1/45 
f 97/1/46 98/1/47 99/1/48 
f 98/1/47 62/1/49 100/1/50 
f 1/1/51 3/1/52 27/1/53 
f 101/1/54 7/1/55 27/1/53 
f 102/1/56 24/1/57 62/1/49 
f 103/1/58 96/1/45 97/1/46 
f 21/1/59 13/1/60 103/1/58 
f 60/1/61 1/1/51 87/1/62 
f 97/1/46 104/1/63 105/1/64 
f 96/1/45 102/1/56 98/1/47 
f 61/1/65 8/1/66 7/1/55 
f 21/1/59 106/1/67 107/1/68 
f 95/1/44 94/1/43 108/1/69 
f 62/1/49 19/1/70 109/1/71 
f 110/1/72 111/1/73 112/1/74 
f 110/1/72 113/1/75 114/1/76 
f 111/1/73 22/1/77 107/1/68 
f 115/1/78 114/1/76 109/1/71 
f 116/1/79 105/1/64 106/1/67 
f 102/1/56 117/1/80 65/1/81 
f 10/1/82 94/1/43 103/1/58 
f 96/1/45 95/1/44 117/1/80 
f 94/1/43 10/1/82 118/1/83 
f 117/1/80 119/1/84 89/1/85 
f 95/1/44 120/1/86 119/1/84 
f 121/1/87 57/1/88 122/1/88 
f 123/1/89 42/1/89 121/1/87 
s off
f 26/1/90 124/1/90 124/1/90 
f 64/1/29 125/1/29 126/1/29 
f 70/1/33 127/1/33 128/1/33 
f 67/1/90 66/1/90 66/1/90 
f 124/1/29 129/1/29 67/1/29 
f 124/1/90 67/1/90 67/1/90 
f 72/1/33 130/1/33 131/1/33 
f 89/1/38 132/1/38 133/1/38 
f 118/1/4 12/1/4 134/1/4 
f 28/1/91 9/1/91 133/1/91 
f 88/1/92 135/1/92 134/1/92 
f 90/1/93 136/1/93 135/1/93 
f 90/1/94 28/1/94 137/1/94 
s 1
f 104/1/63 99/1/48 138/1/95 
f 113/1/75 112/1/74 139/1/96 
f 112/1/74 107/1/68 140/1/97 
f 114/1/76 141/1/98 142/1/99 
f 120/1/86 143/1/100 144/1/101 
f 120/1/86 108/1/69 145/1/102 
f 108/1/69 118/1/83 146/1/103 
f 119/1/84 144/1/101 132/1/104 
f 99/1/48 100/1/50 147/1/105 
f 105/1/64 148/1/106 149/1/107 
f 104/1/63 150/1/108 148/1/106 
f 100/1/50 109/1/71 142/1/99 
f 106/1/67 149/1/107 140/1/97 
f 113/1/75 151/1/109 141/1/98 
s off
f 5/1/2 126/1/2 152/1/2 
f 66/1/90 153/1/90 153/1/90 
f 25/1/90 26/1/90 26/1/90 
f 153/1/90 154/1/90 154/1/90 
f 25/1/9 155/1/9 129/1/9 
f 153/1/30 66/1/30 156/1/30 
f 63/1/110 6/1/110 152/1/110 
f 63/1/111 157/1/111 125/1/111 
f 70/1/32 69/1/32 158/1/32 
f 71/1/34 159/1/34 130/1/34 
f 73/1/5 15/1/5 131/1/5 
f 68/1/31 160/1/31 158/1/31 
f 68/1/112 23/1/112 128/1/112 
f 154/1/90 161/1/90 161/1/90 
f 71/1/35 73/1/35 162/1/35 
f 161/1/90 25/1/90 25/1/90 
f 161/1/36 163/1/36 155/1/36 
f 154/1/36 164/1/36 161/1/36 
s 1
f 126/1/113 125/1/114 157/1/115 
f 127/1/116 158/1/117 160/1/118 
f 156/1/119 163/1/120 164/1/121 
f 131/1/122 130/1/123 159/1/124 
f 136/1/125 143/1/100 145/1/102 
f 137/1/126 133/1/127 132/1/104 
f 135/1/128 145/1/102 146/1/103 
f 136/1/125 137/1/126 144/1/101 
f 139/1/96 140/1/97 149/1/107 
f 151/1/109 150/1/108 138/1/95 
f 151/1/109 139/1/96 148/1/106 
f 141/1/98 138/1/95 147/1/105 
s off
f 165/1/129 166/1/129 167/1/129 
f 78/1/130 167/1/130 168/1/130 
f 169/1/131 170/1/131 171/1/131 
f 172/1/132 85/1/132 173/1/132 
f 47/1/133 171/1/133 173/1/133 
f 174/1/134 48/1/134 175/1/134 
f 34/1/133 176/1/133 175/1/133 
f 167/1/12 166/1/12 177/1/12 
f 167/1/12 178/1/12 179/1/12 
f 166/1/135 180/1/135 177/1/135 
f 175/1/11 181/1/11 182/1/11 
f 176/1/11 183/1/11 181/1/11 
f 184/1/136 182/1/136 185/1/136 
f 173/1/11 186/1/11 187/1/11 
f 171/1/11 170/1/11 188/1/11 
f 171/1/11 189/1/11 186/1/11 
f 190/1/137 187/1/137 191/1/137 
f 170/1/138 192/1/138 188/1/138 
f 193/1/139 194/1/139 195/1/139 
s 1
f 92/1/140 196/1/141 197/1/142 
f 198/1/143 199/1/144 200/1/145 
f 201/1/146 202/1/147 192/1/148 
f 203/1/149 204/1/150 180/1/151 
f 121/1/152 205/1/153 206/1/154 
f 207/1/155 208/1/156 209/1/157 
f 210/1/158 211/1/159 212/1/159 
f 57/1/160 206/1/154 213/1/161 
f 214/1/162 215/1/163 216/1/164 
f 210/1/158 207/1/155 217/1/159 
f 218/1/165 219/1/166 220/1/167 
f 196/1/141 221/1/168 212/1/159 
f 222/1/169 223/1/170 216/1/164 
f 224/1/171 225/1/172 216/1/164 
f 226/1/173 220/1/167 219/1/166 
f 227/1/174 219/1/166 225/1/172 
f 215/1/163 199/1/144 228/1/175 
f 229/1/176 33/1/177 213/1/161 
f 42/1/178 17/1/179 230/1/180 
f 214/1/162 225/1/172 219/1/166 
f 231/1/181 232/1/182 220/1/167 
f 121/1/152 42/1/178 233/1/183 
f 234/1/184 235/1/185 230/1/180 
f 231/1/181 226/1/173 235/1/185 
f 198/1/143 222/1/169 228/1/175 
f 229/1/176 236/1/186 222/1/169 
f 233/1/183 237/1/187 238/1/188 
f 237/1/187 227/1/174 224/1/171 
f 233/1/183 230/1/180 235/1/185 
f 235/1/185 226/1/173 227/1/174 
f 205/1/153 238/1/188 239/1/189 
f 238/1/188 224/1/171 223/1/170 
f 206/1/154 239/1/189 236/1/186 
f 239/1/189 223/1/170 222/1/169 
f 240/1/190 221/1/168 92/1/140 
f 75/1/191 241/1/192 242/1/193 
f 241/1/192 207/1/155 210/1/158 
f 44/1/194 91/1/195 242/1/193 
f 242/1/193 210/1/158 221/1/168 
f 75/1/191 74/1/196 241/1/192 
f 241/1/192 74/1/196 208/1/156 
f 45/1/197 44/1/194 240/1/190 
f 209/1/157 217/1/159 207/1/155 
f 231/1/181 243/1/198 244/1/199 
f 174/1/200 185/1/201 202/1/147 
f 17/1/179 80/1/202 234/1/184 
f 172/1/203 191/1/204 209/1/157 
f 245/1/205 195/1/206 204/1/150 
f 221/1/168 196/1/141 92/1/140 
f 229/1/176 198/1/143 246/1/207 
f 245/1/205 84/1/208 247/1/209 
f 39/1/210 248/1/211 247/1/209 
f 246/1/207 249/1/212 176/1/213 
f 243/1/198 80/1/202 168/1/214 
f 93/1/215 250/1/216 248/1/211 
f 168/1/214 179/1/12 251/1/217 
f 180/1/151 166/1/218 165/1/219 
f 243/1/198 252/1/220 244/1/199 
f 252/1/220 251/1/217 244/1/199 
f 176/1/213 249/1/212 253/1/221 
f 200/1/145 249/1/212 246/1/207 
f 249/1/212 200/1/145 253/1/221 
f 34/1/222 33/1/177 229/1/176 
f 234/1/184 80/1/202 243/1/198 
f 174/1/200 184/1/223 185/1/201 
f 172/1/203 190/1/224 191/1/204 
f 192/1/148 170/1/225 169/1/226 
f 197/1/142 250/1/216 93/1/215 
f 248/1/211 250/1/216 254/1/227 
f 248/1/211 255/1/12 256/1/12 
f 247/1/209 256/1/12 194/1/228 
f 250/1/216 197/1/142 254/1/227 
f 245/1/205 193/1/229 195/1/206 
s off
f 54/1/230 53/1/230 56/1/230 
f 55/1/231 40/1/231 43/1/231 
f 217/1/232 209/1/232 191/1/232 
f 257/1/232 212/1/232 211/1/232 
f 258/1/232 259/1/232 260/1/232 
f 261/1/232 202/1/232 185/1/232 
f 259/1/232 261/1/232 262/1/232 
f 211/1/232 217/1/232 263/1/232 
f 180/1/232 204/1/232 258/1/232 
f 197/1/232 196/1/232 212/1/232 
f 244/1/232 264/1/232 218/1/232 
f 265/1/232 266/1/232 215/1/232 
f 215/1/232 266/1/232 200/1/232 
f 264/1/232 265/1/232 214/1/232 
f 180/1/232 267/1/232 264/1/232 
f 260/1/232 262/1/232 266/1/232 
f 266/1/232 262/1/232 185/1/232 
f 267/1/232 260/1/232 265/1/232 
f 195/1/232 197/1/232 257/1/232 
f 268/1/232 263/1/232 269/1/232 
f 270/1/232 257/1/232 268/1/232 
f 263/1/232 191/1/232 192/1/232 
f 269/1/232 192/1/232 202/1/232 
f 258/1/232 270/1/232 271/1/232 
f 271/1/232 269/1/232 261/1/232 
f 204/1/232 195/1/232 270/1/232 
f 1/1/1 60/1/1 59/1/1 
f 1/1/1 59/1/1 2/1/1 
f 6/1/2 24/1/2 4/1/2 
f 9/1/3 28/1/3 7/1/3 
f 12/1/4 118/1/4 10/1/4 
f 15/1/5 73/1/5 13/1/5 
f 19/1/7 4/1/7 20/1/7 
f 20/1/7 16/1/7 18/1/7 
f 23/1/8 68/1/8 21/1/8 
f 26/1/9 4/1/9 24/1/9 
f 28/1/10 90/1/10 27/1/10 
f 31/1/11 47/1/11 29/1/11 
f 34/1/11 81/1/11 32/1/11 
f 36/1/12 78/1/12 35/1/12 
f 39/1/12 83/1/12 37/1/12 
f 40/1/13 55/1/13 18/1/13 
f 43/1/15 40/1/15 17/1/15 
f 46/1/11 201/1/11 169/1/11 
f 46/1/11 169/1/11 47/1/11 
f 48/1/11 174/1/11 201/1/11 
f 48/1/11 201/1/11 46/1/11 
f 50/1/17 43/1/17 42/1/17 
f 52/1/18 56/1/18 41/1/18 
f 54/1/19 57/1/19 33/1/19 
f 50/1/20 49/1/20 18/1/20 
f 53/1/21 33/1/21 41/1/21 
f 52/1/22 51/1/22 57/1/22 
f 58/1/23 59/1/23 11/1/23 
f 14/1/23 30/1/23 29/1/23 
f 11/1/23 14/1/23 29/1/23 
f 41/1/25 32/1/25 81/1/25 
f 82/1/25 30/1/25 14/1/25 
f 81/1/25 82/1/25 14/1/25 
f 41/1/25 81/1/25 14/1/25 
f 20/1/26 4/1/26 8/1/26 
f 20/1/26 8/1/26 61/1/26 
f 6/1/27 63/1/27 62/1/27 
f 64/1/28 19/1/28 62/1/28 
f 64/1/29 5/1/29 4/1/29 
f 66/1/30 153/1/30 65/1/30 
f 8/1/29 4/1/29 26/1/29 
f 8/1/29 26/1/29 124/1/29 
f 8/1/29 124/1/29 67/1/29 
f 69/1/31 13/1/31 21/1/31 
f 69/1/32 70/1/32 14/1/32 
f 23/1/33 22/1/33 14/1/33 
f 72/1/34 11/1/34 10/1/34 
f 73/1/35 71/1/35 10/1/35 
f 77/1/12 203/1/12 165/1/12 
f 77/1/12 165/1/12 78/1/12 
f 80/1/12 17/1/12 16/1/12 
f 48/1/11 82/1/11 81/1/11 
f 31/1/11 30/1/11 82/1/11 
f 78/1/12 80/1/12 79/1/12 
f 84/1/12 86/1/12 83/1/12 
f 85/1/11 76/1/11 59/1/11 
f 65/1/36 153/1/36 154/1/36 
f 65/1/36 154/1/36 161/1/36 
f 65/1/36 161/1/36 25/1/36 
f 36/1/12 20/1/12 86/1/12 
f 72/1/33 15/1/33 14/1/33 
f 85/1/11 58/1/11 29/1/11 
f 12/1/37 11/1/37 87/1/37 
f 9/1/38 8/1/38 65/1/38 
f 88/1/39 87/1/39 27/1/39 
f 37/1/40 61/1/40 101/1/40 
f 37/1/40 101/1/40 3/1/40 
f 37/1/41 2/1/41 91/1/41 
f 37/1/41 91/1/41 44/1/41 
f 59/1/42 76/1/42 75/1/42 
f 59/1/42 75/1/42 91/1/42 
f 84/1/12 245/1/12 203/1/12 
f 84/1/12 203/1/12 77/1/12 
f 85/1/11 172/1/11 208/1/11 
f 85/1/11 208/1/11 74/1/11 
f 39/1/12 38/1/12 45/1/12 
f 39/1/12 45/1/12 92/1/12 
s 1
f 96/1/45 103/1/58 94/1/43 
f 99/1/48 104/1/63 97/1/46 
f 100/1/50 99/1/48 98/1/47 
f 27/1/53 87/1/62 1/1/51 
f 27/1/53 3/1/52 101/1/54 
f 62/1/49 98/1/47 102/1/56 
f 97/1/46 116/1/79 103/1/58 
f 103/1/58 116/1/79 21/1/59 
f 87/1/62 11/1/233 60/1/61 
f 105/1/64 116/1/79 97/1/46 
f 98/1/47 97/1/46 96/1/45 
f 7/1/55 101/1/54 61/1/65 
f 107/1/68 22/1/77 21/1/59 
f 108/1/69 120/1/86 95/1/44 
f 109/1/71 100/1/50 62/1/49 
f 112/1/74 113/1/75 110/1/72 
f 114/1/76 115/1/78 110/1/72 
f 107/1/68 112/1/74 111/1/73 
f 109/1/71 19/1/70 115/1/78 
f 106/1/67 21/1/59 116/1/79 
f 65/1/81 24/1/57 102/1/56 
f 103/1/58 13/1/60 10/1/82 
f 117/1/80 102/1/56 96/1/45 
f 118/1/83 108/1/69 94/1/43 
f 89/1/85 65/1/81 117/1/80 
f 119/1/84 117/1/80 95/1/44 
f 122/1/88 272/1/87 121/1/87 
f 121/1/87 272/1/87 123/1/89 
s off
f 124/1/90 26/1/90 26/1/90 
f 126/1/29 5/1/29 64/1/29 
f 128/1/33 23/1/33 70/1/33 
f 66/1/90 67/1/90 67/1/90 
f 124/1/29 26/1/29 129/1/29 
f 129/1/29 156/1/29 66/1/29 
f 129/1/29 66/1/29 67/1/29 
f 67/1/90 124/1/90 124/1/90 
f 131/1/33 15/1/33 72/1/33 
f 133/1/38 9/1/38 89/1/38 
f 134/1/4 146/1/4 118/1/4 
f 133/1/91 137/1/91 28/1/91 
f 134/1/92 12/1/92 88/1/92 
f 135/1/93 88/1/93 90/1/93 
f 137/1/94 136/1/94 90/1/94 
s 1
f 138/1/95 150/1/108 104/1/63 
f 139/1/96 151/1/109 113/1/75 
f 140/1/97 139/1/96 112/1/74 
f 142/1/99 109/1/71 114/1/76 
f 144/1/101 119/1/84 120/1/86 
f 145/1/102 143/1/100 120/1/86 
f 146/1/103 145/1/102 108/1/69 
f 132/1/104 89/1/85 119/1/84 
f 147/1/105 138/1/95 99/1/48 
f 149/1/107 106/1/67 105/1/64 
f 148/1/106 105/1/64 104/1/63 
f 142/1/99 147/1/105 100/1/50 
f 140/1/97 107/1/68 106/1/67 
f 141/1/98 114/1/76 113/1/75 
s off
f 152/1/2 6/1/2 5/1/2 
f 153/1/90 66/1/90 66/1/90 
f 26/1/90 25/1/90 25/1/90 
f 154/1/90 153/1/90 153/1/90 
f 129/1/9 26/1/9 25/1/9 
f 156/1/30 164/1/30 153/1/30 
f 152/1/110 157/1/110 63/1/110 
f 125/1/111 64/1/111 63/1/111 
f 158/1/32 127/1/32 70/1/32 
f 130/1/34 72/1/34 71/1/34 
f 131/1/5 162/1/5 73/1/5 
f 158/1/31 69/1/31 68/1/31 
f 128/1/112 160/1/112 68/1/112 
f 161/1/90 154/1/90 154/1/90 
f 162/1/35 159/1/35 71/1/35 
f 25/1/90 161/1/90 161/1/90 
f 155/1/36 25/1/36 161/1/36 
f 154/1/36 153/1/36 164/1/36 
f 164/1/36 163/1/36 161/1/36 
s 1
f 157/1/115 152/1/234 126/1/113 
f 160/1/118 128/1/235 127/1/116 
f 156/1/119 129/1/236 155/1/237 
f 156/1/119 155/1/237 163/1/120 
f 159/1/124 162/1/238 131/1/122 
f 145/1/102 135/1/128 136/1/125 
f 132/1/104 144/1/101 137/1/126 
f 146/1/103 134/1/239 135/1/128 
f 144/1/101 143/1/100 136/1/125 
f 149/1/107 148/1/106 139/1/96 
f 138/1/95 141/1/98 151/1/109 
f 148/1/106 150/1/108 151/1/109 
f 147/1/105 142/1/99 141/1/98 
s off
f 167/1/129 78/1/129 165/1/129 
f 168/1/130 80/1/130 78/1/130 
f 171/1/131 47/1/131 169/1/131 
f 173/1/132 190/1/132 172/1/132 
f 173/1/133 85/1/133 47/1/133 
f 175/1/134 184/1/134 174/1/134 
f 175/1/133 48/1/133 34/1/133 
f 177/1/12 178/1/12 167/1/12 
f 179/1/12 168/1/12 167/1/12 
f 182/1/11 184/1/11 175/1/11 
f 181/1/11 175/1/11 176/1/11 
f 187/1/11 190/1/11 173/1/11 
f 188/1/11 189/1/11 171/1/11 
f 186/1/11 173/1/11 171/1/11 
s 1
f 197/1/142 93/1/215 92/1/140 
f 200/1/145 246/1/207 198/1/143 
f 192/1/148 169/1/226 201/1/146 
f 180/1/151 165/1/219 203/1/149 
f 206/1/154 57/1/160 121/1/152 
f 212/1/159 221/1/168 210/1/158 
f 213/1/161 33/1/177 57/1/160 
f 216/1/164 225/1/172 214/1/162 
f 217/1/159 211/1/159 210/1/158 
f 220/1/167 232/1/182 218/1/165 
f 216/1/164 228/1/175 222/1/169 
f 216/1/164 223/1/170 224/1/171 
f 219/1/166 227/1/174 226/1/173 
f 225/1/172 224/1/171 227/1/174 
f 228/1/175 216/1/164 215/1/163 
f 213/1/161 236/1/186 229/1/176 
f 230/1/180 233/1/183 42/1/178 
f 219/1/166 218/1/165 214/1/162 
f 220/1/167 226/1/173 231/1/181 
f 233/1/183 205/1/153 121/1/152 
f 230/1/180 17/1/179 234/1/184 
f 235/1/185 234/1/184 231/1/181 
f 228/1/175 199/1/144 198/1/143 
f 222/1/169 198/1/143 229/1/176 
f 238/1/188 205/1/153 233/1/183 
f 224/1/171 238/1/188 237/1/187 
f 235/1/185 237/1/187 233/1/183 
f 227/1/174 237/1/187 235/1/185 
f 239/1/189 206/1/154 205/1/153 
f 223/1/170 239/1/189 238/1/188 
f 236/1/186 213/1/161 206/1/154 
f 222/1/169 236/1/186 239/1/189 
f 92/1/140 45/1/197 240/1/190 
f 242/1/193 91/1/195 75/1/191 
f 210/1/158 242/1/193 241/1/192 
f 242/1/193 240/1/190 44/1/194 
f 221/1/168 240/1/190 242/1/193 
f 208/1/156 207/1/155 241/1/192 
f 244/1/199 232/1/182 231/1/181 
f 202/1/147 201/1/146 174/1/200 
f 209/1/157 208/1/156 172/1/203 
f 204/1/150 203/1/149 245/1/205 
f 246/1/207 34/1/222 229/1/176 
f 247/1/209 193/1/229 245/1/205 
f 247/1/209 84/1/208 39/1/210 
f 176/1/213 34/1/222 246/1/207 
f 168/1/214 252/1/220 243/1/198 
f 248/1/211 39/1/210 93/1/215 
f 251/1/217 252/1/220 168/1/214 
f 253/1/221 183/1/11 176/1/213 
f 243/1/198 231/1/181 234/1/184 
f 254/1/227 255/1/12 248/1/211 
f 256/1/12 247/1/209 248/1/211 
f 194/1/228 193/1/229 247/1/209 
s off
f 56/1/230 52/1/230 54/1/230 
f 43/1/231 50/1/231 55/1/231 
f 191/1/232 263/1/232 217/1/232 
f 211/1/232 268/1/232 257/1/232 
f 260/1/232 267/1/232 258/1/232 
f 185/1/232 262/1/232 261/1/232 
f 262/1/232 260/1/232 259/1/232 
f 263/1/232 268/1/232 211/1/232 
f 258/1/232 267/1/232 180/1/232 
f 212/1/232 257/1/232 197/1/232 
f 218/1/232 232/1/232 244/1/232 
f 215/1/232 214/1/232 265/1/232 
f 200/1/232 199/1/232 215/1/232 
f 214/1/232 218/1/232 264/1/232 
f 264/1/232 244/1/232 180/1/232 
f 266/1/232 265/1/232 260/1/232 
f 185/1/232 200/1/232 266/1/232 
f 265/1/232 264/1/232 267/1/232 
f 257/1/232 270/1/232 195/1/232 
f 269/1/232 271/1/232 268/1/232 
f 268/1/232 271/1/232 270/1/232 
f 192/1/232 269/1/232 263/1/232 
f 202/1/232 261/1/232 269/1/232 
f 271/1/232 259/1/232 258/1/232 
f 261/1/232 259/1/232 271/1/232 
f 270/1/232 258/1/232 204/1/232 
# 0 polygons - 524 triangles

