# Blender 4.4.0
# www.blender.org
mtllib paredTexturizadaobj.mtl
o Cube
v -1.078206 0.000000 1.816725
v -1.078206 2.921383 1.816725
v -1.078206 0.000000 -3.163930
v -1.078206 2.921383 -3.163930
v -0.155120 0.000000 1.816725
v -0.155120 2.921383 1.816725
v -0.155120 0.000000 -3.163930
v -0.155120 2.921383 -3.163930
vn -1.0000 -0.0000 -0.0000
vn -0.0000 -0.0000 -1.0000
vn 1.0000 -0.0000 -0.0000
vn -0.0000 -0.0000 1.0000
vn -0.0000 -1.0000 -0.0000
vn -0.0000 1.0000 -0.0000
vt 0.002402 1.002223
vt -0.002723 -0.015932
vt 0.997598 -0.016429
vt 1.002723 1.001726
vt 0.313901 -0.004073
vt 0.311701 1.014597
vt 0.000554 1.006057
vt 0.002754 -0.012612
vt 0.995396 0.013753
vt 0.995801 1.009412
vt 0.004114 1.012993
vt 0.003708 0.017334
vt 0.002444 1.000716
vt 0.001697 -0.013649
vt 0.315099 -0.016748
vt 0.315846 0.997617
vt 0.482185 0.885040
vt 0.482166 0.635040
vt 0.732166 0.635022
vt 0.732185 0.885022
vt 0.625000 0.500000
vt 0.875000 0.500000
vt 0.875000 0.750000
vt 0.625000 0.750000
s 0
usemtl Material.001
f 1/1/1 2/2/1 4/3/1 3/4/1
f 3/5/2 4/6/2 8/7/2 7/8/2
f 7/9/3 8/10/3 6/11/3 5/12/3
f 5/13/4 6/14/4 2/15/4 1/16/4
f 3/17/5 7/18/5 5/19/5 1/20/5
f 8/21/6 4/22/6 2/23/6 6/24/6
